<?xml version="1.0" encoding="UTF-8" standalone="no"?>
<!DOCTYPE svg PUBLIC "-//W3C//DTD SVG 1.1//EN"
 "http://www.w3.org/Graphics/SVG/1.1/DTD/svg11.dtd">
<!-- Generated by graphviz version 2.43.0 (0)
 -->
<!-- Title: G Pages: 1 -->
<svg width="2992pt" height="1187pt"
 viewBox="0.00 0.00 2991.93 1187.30" xmlns="http://www.w3.org/2000/svg" xmlns:xlink="http://www.w3.org/1999/xlink">
<g id="graph0" class="graph" transform="scale(1 1) rotate(0) translate(21.6 1165.7)">
<title>G</title>
<polygon fill="#111111" stroke="transparent" points="-21.6,21.6 -21.6,-1165.7 2970.33,-1165.7 2970.33,21.6 -21.6,21.6"/>
<!-- _actions/alert.actions.js -->
<g id="node1" class="node">
<title>_actions/alert.actions.js</title>
<path fill="none" stroke="#c6c5fe" d="M1526.66,-1144.15C1526.66,-1144.15 1381.76,-1144.15 1381.76,-1144.15 1377.72,-1144.15 1373.69,-1140.12 1373.69,-1136.08 1373.69,-1136.08 1373.69,-1128.02 1373.69,-1128.02 1373.69,-1123.98 1377.72,-1119.95 1381.76,-1119.95 1381.76,-1119.95 1526.66,-1119.95 1526.66,-1119.95 1530.69,-1119.95 1534.73,-1123.98 1534.73,-1128.02 1534.73,-1128.02 1534.73,-1136.08 1534.73,-1136.08 1534.73,-1140.12 1530.69,-1144.15 1526.66,-1144.15"/>
<text text-anchor="middle" x="1454.21" y="-1128.9" font-family="Arial" font-size="14.00" fill="#c6c5fe">_actions/alert.actions.js</text>
</g>
<!-- _constants/index.js -->
<g id="node2" class="node">
<title>_constants/index.js</title>
<path fill="none" stroke="#c6c5fe" d="M2707.39,-1026.15C2707.39,-1026.15 2588.38,-1026.15 2588.38,-1026.15 2584.35,-1026.15 2580.32,-1022.12 2580.32,-1018.08 2580.32,-1018.08 2580.32,-1010.02 2580.32,-1010.02 2580.32,-1005.98 2584.35,-1001.95 2588.38,-1001.95 2588.38,-1001.95 2707.39,-1001.95 2707.39,-1001.95 2711.42,-1001.95 2715.45,-1005.98 2715.45,-1010.02 2715.45,-1010.02 2715.45,-1018.08 2715.45,-1018.08 2715.45,-1022.12 2711.42,-1026.15 2707.39,-1026.15"/>
<text text-anchor="middle" x="2647.88" y="-1010.9" font-family="Arial" font-size="14.00" fill="#c6c5fe">_constants/index.js</text>
</g>
<!-- _actions/alert.actions.js&#45;&gt;_constants/index.js -->
<g id="edge1" class="edge">
<title>_actions/alert.actions.js&#45;&gt;_constants/index.js</title>
<path fill="none" stroke="#757575" d="M1534.73,-1131.72C1612.47,-1131.43 1734.19,-1131.05 1839.65,-1131.05 1839.65,-1131.05 1839.65,-1131.05 2210.63,-1131.05 2359.37,-1131.05 2407.53,-1164.38 2544.35,-1106.05 2580.86,-1090.48 2613.13,-1056.43 2631.31,-1034.41"/>
<polygon fill="#757575" stroke="#757575" points="2634.25,-1036.33 2637.78,-1026.34 2628.79,-1031.95 2634.25,-1036.33"/>
</g>
<!-- _constants/alert.constants.js -->
<g id="node8" class="node">
<title>_constants/alert.constants.js</title>
<path fill="none" stroke="#cfffac" d="M2938.15,-1068.15C2938.15,-1068.15 2761.99,-1068.15 2761.99,-1068.15 2757.96,-1068.15 2753.92,-1064.12 2753.92,-1060.08 2753.92,-1060.08 2753.92,-1052.02 2753.92,-1052.02 2753.92,-1047.98 2757.96,-1043.95 2761.99,-1043.95 2761.99,-1043.95 2938.15,-1043.95 2938.15,-1043.95 2942.19,-1043.95 2946.22,-1047.98 2946.22,-1052.02 2946.22,-1052.02 2946.22,-1060.08 2946.22,-1060.08 2946.22,-1064.12 2942.19,-1068.15 2938.15,-1068.15"/>
<text text-anchor="middle" x="2850.07" y="-1052.9" font-family="Arial" font-size="14.00" fill="#cfffac">_constants/alert.constants.js</text>
</g>
<!-- _constants/index.js&#45;&gt;_constants/alert.constants.js -->
<g id="edge13" class="edge">
<title>_constants/index.js&#45;&gt;_constants/alert.constants.js</title>
<path fill="none" stroke="#757575" d="M2706.52,-1026.14C2729.97,-1031.06 2757.24,-1036.78 2781.61,-1041.9"/>
<polygon fill="#757575" stroke="#757575" points="2780.99,-1045.34 2791.5,-1043.97 2782.43,-1038.49 2780.99,-1045.34"/>
</g>
<!-- _constants/class.constants.js -->
<g id="node9" class="node">
<title>_constants/class.constants.js</title>
<path fill="none" stroke="#cfffac" d="M2940.82,-1026.15C2940.82,-1026.15 2759.33,-1026.15 2759.33,-1026.15 2755.3,-1026.15 2751.26,-1022.12 2751.26,-1018.08 2751.26,-1018.08 2751.26,-1010.02 2751.26,-1010.02 2751.26,-1005.98 2755.3,-1001.95 2759.33,-1001.95 2759.33,-1001.95 2940.82,-1001.95 2940.82,-1001.95 2944.85,-1001.95 2948.88,-1005.98 2948.88,-1010.02 2948.88,-1010.02 2948.88,-1018.08 2948.88,-1018.08 2948.88,-1022.12 2944.85,-1026.15 2940.82,-1026.15"/>
<text text-anchor="middle" x="2850.07" y="-1010.9" font-family="Arial" font-size="14.00" fill="#cfffac">_constants/class.constants.js</text>
</g>
<!-- _constants/index.js&#45;&gt;_constants/class.constants.js -->
<g id="edge14" class="edge">
<title>_constants/index.js&#45;&gt;_constants/class.constants.js</title>
<path fill="none" stroke="#757575" d="M2715.54,-1014.05C2723.8,-1014.05 2732.4,-1014.05 2741.08,-1014.05"/>
<polygon fill="#757575" stroke="#757575" points="2741.29,-1017.55 2751.29,-1014.05 2741.29,-1010.55 2741.29,-1017.55"/>
</g>
<!-- _constants/user.constants.js -->
<g id="node10" class="node">
<title>_constants/user.constants.js</title>
<path fill="none" stroke="#cfffac" d="M2937.88,-984.15C2937.88,-984.15 2762.26,-984.15 2762.26,-984.15 2758.23,-984.15 2754.2,-980.12 2754.2,-976.08 2754.2,-976.08 2754.2,-968.02 2754.2,-968.02 2754.2,-963.98 2758.23,-959.95 2762.26,-959.95 2762.26,-959.95 2937.88,-959.95 2937.88,-959.95 2941.91,-959.95 2945.95,-963.98 2945.95,-968.02 2945.95,-968.02 2945.95,-976.08 2945.95,-976.08 2945.95,-980.12 2941.91,-984.15 2937.88,-984.15"/>
<text text-anchor="middle" x="2850.07" y="-968.9" font-family="Arial" font-size="14.00" fill="#cfffac">_constants/user.constants.js</text>
</g>
<!-- _constants/index.js&#45;&gt;_constants/user.constants.js -->
<g id="edge15" class="edge">
<title>_constants/index.js&#45;&gt;_constants/user.constants.js</title>
<path fill="none" stroke="#757575" d="M2706.52,-1001.96C2729.97,-997.04 2757.24,-991.32 2781.61,-986.2"/>
<polygon fill="#757575" stroke="#757575" points="2782.43,-989.61 2791.5,-984.13 2780.99,-982.76 2782.43,-989.61"/>
</g>
<!-- _actions/class.actions.js -->
<g id="node3" class="node">
<title>_actions/class.actions.js</title>
<path fill="none" stroke="#ff6c60" d="M758.16,-948.15C758.16,-948.15 607.93,-948.15 607.93,-948.15 603.9,-948.15 599.86,-944.12 599.86,-940.08 599.86,-940.08 599.86,-932.02 599.86,-932.02 599.86,-927.98 603.9,-923.95 607.93,-923.95 607.93,-923.95 758.16,-923.95 758.16,-923.95 762.19,-923.95 766.22,-927.98 766.22,-932.02 766.22,-932.02 766.22,-940.08 766.22,-940.08 766.22,-944.12 762.19,-948.15 758.16,-948.15"/>
<text text-anchor="middle" x="683.04" y="-932.9" font-family="Arial" font-size="14.00" fill="#ff6c60">_actions/class.actions.js</text>
</g>
<!-- _actions/class.actions.js&#45;&gt;_constants/index.js -->
<g id="edge3" class="edge">
<title>_actions/class.actions.js&#45;&gt;_constants/index.js</title>
<path fill="none" stroke="#757575" d="M706.77,-948.35C734.54,-962.93 783.29,-987.15 827.42,-1002.05 1001.3,-1060.74 1046.88,-1092.05 1230.4,-1092.05 1230.4,-1092.05 1230.4,-1092.05 2210.63,-1092.05 2359.72,-1092.05 2400.03,-1095.43 2544.35,-1058.05 2568.84,-1051.7 2595.04,-1040.38 2614.82,-1030.81"/>
<polygon fill="#757575" stroke="#757575" points="2616.57,-1033.85 2623.98,-1026.28 2613.46,-1027.57 2616.57,-1033.85"/>
</g>
<!-- _actions/index.js -->
<g id="node4" class="node">
<title>_actions/index.js</title>
<path fill="none" stroke="#ff6c60" d="M1009.82,-908.15C1009.82,-908.15 906.94,-908.15 906.94,-908.15 902.91,-908.15 898.88,-904.12 898.88,-900.08 898.88,-900.08 898.88,-892.02 898.88,-892.02 898.88,-887.98 902.91,-883.95 906.94,-883.95 906.94,-883.95 1009.82,-883.95 1009.82,-883.95 1013.85,-883.95 1017.89,-887.98 1017.89,-892.02 1017.89,-892.02 1017.89,-900.08 1017.89,-900.08 1017.89,-904.12 1013.85,-908.15 1009.82,-908.15"/>
<text text-anchor="middle" x="958.38" y="-892.9" font-family="Arial" font-size="14.00" fill="#ff6c60">_actions/index.js</text>
</g>
<!-- _actions/class.actions.js&#45;&gt;_actions/index.js -->
<g id="edge2" class="edge">
<title>_actions/class.actions.js&#45;&gt;_actions/index.js</title>
<path fill="none" stroke="#757575" d="M730.72,-923.99C774.09,-915.89 839.21,-906.12 888.54,-900.17"/>
<polygon fill="#757575" stroke="#757575" points="888.98,-903.65 898.5,-899 888.16,-896.7 888.98,-903.65"/>
</g>
<!-- _helpers/index.js -->
<g id="node5" class="node">
<title>_helpers/index.js</title>
<path fill="none" stroke="#c6c5fe" d="M1893.14,-925.15C1893.14,-925.15 1788.15,-925.15 1788.15,-925.15 1784.12,-925.15 1780.09,-921.12 1780.09,-917.08 1780.09,-917.08 1780.09,-909.02 1780.09,-909.02 1780.09,-904.98 1784.12,-900.95 1788.15,-900.95 1788.15,-900.95 1893.14,-900.95 1893.14,-900.95 1897.18,-900.95 1901.21,-904.98 1901.21,-909.02 1901.21,-909.02 1901.21,-917.08 1901.21,-917.08 1901.21,-921.12 1897.18,-925.15 1893.14,-925.15"/>
<text text-anchor="middle" x="1840.65" y="-909.9" font-family="Arial" font-size="14.00" fill="#c6c5fe">_helpers/index.js</text>
</g>
<!-- _actions/class.actions.js&#45;&gt;_helpers/index.js -->
<g id="edge4" class="edge">
<title>_actions/class.actions.js&#45;&gt;_helpers/index.js</title>
<path fill="none" stroke="#757575" d="M733.04,-948.11C828.24,-970.46 1045.14,-1016.05 1230.4,-1016.05 1230.4,-1016.05 1230.4,-1016.05 1455.21,-1016.05 1584.35,-1016.05 1624.02,-1032.52 1744.12,-985.05 1773.93,-973.27 1802.52,-949.52 1820.53,-932.51"/>
<polygon fill="#757575" stroke="#757575" points="1823.28,-934.72 1828.02,-925.24 1818.41,-929.7 1823.28,-934.72"/>
</g>
<!-- _services/index.js -->
<g id="node6" class="node">
<title>_services/index.js</title>
<path fill="none" stroke="#c6c5fe" d="M1509.63,-949.15C1509.63,-949.15 1398.78,-949.15 1398.78,-949.15 1394.75,-949.15 1390.72,-945.12 1390.72,-941.08 1390.72,-941.08 1390.72,-933.02 1390.72,-933.02 1390.72,-928.98 1394.75,-924.95 1398.78,-924.95 1398.78,-924.95 1509.63,-924.95 1509.63,-924.95 1513.67,-924.95 1517.7,-928.98 1517.7,-933.02 1517.7,-933.02 1517.7,-941.08 1517.7,-941.08 1517.7,-945.12 1513.67,-949.15 1509.63,-949.15"/>
<text text-anchor="middle" x="1454.21" y="-933.9" font-family="Arial" font-size="14.00" fill="#c6c5fe">_services/index.js</text>
</g>
<!-- _actions/class.actions.js&#45;&gt;_services/index.js -->
<g id="edge5" class="edge">
<title>_actions/class.actions.js&#45;&gt;_services/index.js</title>
<path fill="none" stroke="#757575" d="M766.36,-936.16C917.55,-936.35 1237.13,-936.77 1380.7,-936.96"/>
<polygon fill="#757575" stroke="#757575" points="1380.72,-940.45 1390.72,-936.97 1380.73,-933.45 1380.72,-940.45"/>
</g>
<!-- _actions/index.js&#45;&gt;_actions/alert.actions.js -->
<g id="edge6" class="edge">
<title>_actions/index.js&#45;&gt;_actions/alert.actions.js</title>
<path fill="none" stroke="#757575" d="M977.27,-908.22C1007.12,-928.24 1069.37,-968.71 1125.34,-997.05 1223.87,-1046.93 1345.32,-1093.2 1409.18,-1116.42"/>
<polygon fill="#757575" stroke="#757575" points="1408.33,-1119.83 1418.92,-1119.95 1410.71,-1113.25 1408.33,-1119.83"/>
</g>
<!-- _actions/index.js&#45;&gt;_actions/class.actions.js -->
<g id="edge7" class="edge">
<title>_actions/index.js&#45;&gt;_actions/class.actions.js</title>
<path fill="none" stroke="#757575" d="M910.53,-908.14C873.81,-914.99 821.57,-923.03 776.51,-928.94"/>
<polygon fill="#757575" stroke="#757575" points="775.89,-925.49 766.42,-930.25 776.79,-932.44 775.89,-925.49"/>
</g>
<!-- _actions/user.actions.js -->
<g id="node7" class="node">
<title>_actions/user.actions.js</title>
<path fill="none" stroke="#ff6c60" d="M1303.57,-988.15C1303.57,-988.15 1159.22,-988.15 1159.22,-988.15 1155.18,-988.15 1151.15,-984.12 1151.15,-980.08 1151.15,-980.08 1151.15,-972.02 1151.15,-972.02 1151.15,-967.98 1155.18,-963.95 1159.22,-963.95 1159.22,-963.95 1303.57,-963.95 1303.57,-963.95 1307.61,-963.95 1311.64,-967.98 1311.64,-972.02 1311.64,-972.02 1311.64,-980.08 1311.64,-980.08 1311.64,-984.12 1307.61,-988.15 1303.57,-988.15"/>
<text text-anchor="middle" x="1231.4" y="-972.9" font-family="Arial" font-size="14.00" fill="#ff6c60">_actions/user.actions.js</text>
</g>
<!-- _actions/index.js&#45;&gt;_actions/user.actions.js -->
<g id="edge8" class="edge">
<title>_actions/index.js&#45;&gt;_actions/user.actions.js</title>
<path fill="none" stroke="#757575" d="M1018.19,-907.73C1071.74,-921.85 1149.12,-945 1194.14,-960.57"/>
<polygon fill="#757575" stroke="#757575" points="1193.18,-963.95 1203.77,-963.97 1195.51,-957.34 1193.18,-963.95"/>
</g>
<!-- _helpers/auth&#45;header.js -->
<g id="node11" class="node">
<title>_helpers/auth&#45;header.js</title>
<path fill="none" stroke="#cfffac" d="M2096.26,-934.15C2096.26,-934.15 1949.75,-934.15 1949.75,-934.15 1945.71,-934.15 1941.68,-930.12 1941.68,-926.08 1941.68,-926.08 1941.68,-918.02 1941.68,-918.02 1941.68,-913.98 1945.71,-909.95 1949.75,-909.95 1949.75,-909.95 2096.26,-909.95 2096.26,-909.95 2100.29,-909.95 2104.33,-913.98 2104.33,-918.02 2104.33,-918.02 2104.33,-926.08 2104.33,-926.08 2104.33,-930.12 2100.29,-934.15 2096.26,-934.15"/>
<text text-anchor="middle" x="2023" y="-918.9" font-family="Arial" font-size="14.00" fill="#cfffac">_helpers/auth&#45;header.js</text>
</g>
<!-- _helpers/index.js&#45;&gt;_helpers/auth&#45;header.js -->
<g id="edge16" class="edge">
<title>_helpers/index.js&#45;&gt;_helpers/auth&#45;header.js</title>
<path fill="none" stroke="#757575" d="M1901.2,-916.02C1910.9,-916.51 1921.13,-917.02 1931.37,-917.53"/>
<polygon fill="#757575" stroke="#757575" points="1931.43,-921.03 1941.59,-918.04 1931.78,-914.04 1931.43,-921.03"/>
</g>
<!-- _helpers/fake&#45;backend.js -->
<g id="node12" class="node">
<title>_helpers/fake&#45;backend.js</title>
<path fill="none" stroke="#cfffac" d="M2100.59,-892.15C2100.59,-892.15 1945.42,-892.15 1945.42,-892.15 1941.39,-892.15 1937.36,-888.12 1937.36,-884.08 1937.36,-884.08 1937.36,-876.02 1937.36,-876.02 1937.36,-871.98 1941.39,-867.95 1945.42,-867.95 1945.42,-867.95 2100.59,-867.95 2100.59,-867.95 2104.62,-867.95 2108.65,-871.98 2108.65,-876.02 2108.65,-876.02 2108.65,-884.08 2108.65,-884.08 2108.65,-888.12 2104.62,-892.15 2100.59,-892.15"/>
<text text-anchor="middle" x="2023" y="-876.9" font-family="Arial" font-size="14.00" fill="#cfffac">_helpers/fake&#45;backend.js</text>
</g>
<!-- _helpers/index.js&#45;&gt;_helpers/fake&#45;backend.js -->
<g id="edge17" class="edge">
<title>_helpers/index.js&#45;&gt;_helpers/fake&#45;backend.js</title>
<path fill="none" stroke="#757575" d="M1901.2,-902.15C1915.46,-899.54 1930.87,-896.72 1945.77,-894"/>
<polygon fill="#757575" stroke="#757575" points="1946.77,-897.37 1955.98,-892.13 1945.51,-890.49 1946.77,-897.37"/>
</g>
<!-- _helpers/history.js -->
<g id="node13" class="node">
<title>_helpers/history.js</title>
<path fill="none" stroke="#cfffac" d="M2078.73,-850.15C2078.73,-850.15 1967.28,-850.15 1967.28,-850.15 1963.25,-850.15 1959.22,-846.12 1959.22,-842.08 1959.22,-842.08 1959.22,-834.02 1959.22,-834.02 1959.22,-829.98 1963.25,-825.95 1967.28,-825.95 1967.28,-825.95 2078.73,-825.95 2078.73,-825.95 2082.76,-825.95 2086.79,-829.98 2086.79,-834.02 2086.79,-834.02 2086.79,-842.08 2086.79,-842.08 2086.79,-846.12 2082.76,-850.15 2078.73,-850.15"/>
<text text-anchor="middle" x="2023" y="-834.9" font-family="Arial" font-size="14.00" fill="#cfffac">_helpers/history.js</text>
</g>
<!-- _helpers/index.js&#45;&gt;_helpers/history.js -->
<g id="edge18" class="edge">
<title>_helpers/index.js&#45;&gt;_helpers/history.js</title>
<path fill="none" stroke="#757575" d="M1859.58,-900.94C1878.24,-888.82 1908.68,-870.39 1937.18,-859.05 1942.6,-856.89 1948.3,-854.91 1954.08,-853.1"/>
<polygon fill="#757575" stroke="#757575" points="1955.25,-856.41 1963.85,-850.21 1953.27,-849.69 1955.25,-856.41"/>
</g>
<!-- _helpers/store.js -->
<g id="node14" class="node">
<title>_helpers/store.js</title>
<path fill="none" stroke="#c6c5fe" d="M2074.15,-976.15C2074.15,-976.15 1971.85,-976.15 1971.85,-976.15 1967.82,-976.15 1963.79,-972.12 1963.79,-968.08 1963.79,-968.08 1963.79,-960.02 1963.79,-960.02 1963.79,-955.98 1967.82,-951.95 1971.85,-951.95 1971.85,-951.95 2074.15,-951.95 2074.15,-951.95 2078.19,-951.95 2082.22,-955.98 2082.22,-960.02 2082.22,-960.02 2082.22,-968.08 2082.22,-968.08 2082.22,-972.12 2078.19,-976.15 2074.15,-976.15"/>
<text text-anchor="middle" x="2023" y="-960.9" font-family="Arial" font-size="14.00" fill="#c6c5fe">_helpers/store.js</text>
</g>
<!-- _helpers/index.js&#45;&gt;_helpers/store.js -->
<g id="edge19" class="edge">
<title>_helpers/index.js&#45;&gt;_helpers/store.js</title>
<path fill="none" stroke="#757575" d="M1878.24,-925.12C1895.96,-930.82 1917.6,-937.56 1937.18,-943.05 1944.86,-945.21 1952.97,-947.36 1961.01,-949.43"/>
<polygon fill="#757575" stroke="#757575" points="1960.18,-952.83 1970.74,-951.9 1961.9,-946.04 1960.18,-952.83"/>
</g>
<!-- _services/class.service.js -->
<g id="node20" class="node">
<title>_services/class.service.js</title>
<path fill="none" stroke="#c6c5fe" d="M1736.13,-950.15C1736.13,-950.15 1578.96,-950.15 1578.96,-950.15 1574.92,-950.15 1570.89,-946.12 1570.89,-942.08 1570.89,-942.08 1570.89,-934.02 1570.89,-934.02 1570.89,-929.98 1574.92,-925.95 1578.96,-925.95 1578.96,-925.95 1736.13,-925.95 1736.13,-925.95 1740.16,-925.95 1744.19,-929.98 1744.19,-934.02 1744.19,-934.02 1744.19,-942.08 1744.19,-942.08 1744.19,-946.12 1740.16,-950.15 1736.13,-950.15"/>
<text text-anchor="middle" x="1657.54" y="-934.9" font-family="Arial" font-size="14.00" fill="#c6c5fe">_services/class.service.js</text>
</g>
<!-- _services/index.js&#45;&gt;_services/class.service.js -->
<g id="edge30" class="edge">
<title>_services/index.js&#45;&gt;_services/class.service.js</title>
<path fill="none" stroke="#757575" d="M1517.53,-937.36C1531.23,-937.43 1546.05,-937.5 1560.72,-937.57"/>
<polygon fill="#757575" stroke="#757575" points="1560.83,-941.07 1570.85,-937.62 1560.86,-934.07 1560.83,-941.07"/>
</g>
<!-- _services/user.service.js -->
<g id="node21" class="node">
<title>_services/user.service.js</title>
<path fill="none" stroke="#c6c5fe" d="M1733.19,-908.15C1733.19,-908.15 1581.89,-908.15 1581.89,-908.15 1577.86,-908.15 1573.83,-904.12 1573.83,-900.08 1573.83,-900.08 1573.83,-892.02 1573.83,-892.02 1573.83,-887.98 1577.86,-883.95 1581.89,-883.95 1581.89,-883.95 1733.19,-883.95 1733.19,-883.95 1737.23,-883.95 1741.26,-887.98 1741.26,-892.02 1741.26,-892.02 1741.26,-900.08 1741.26,-900.08 1741.26,-904.12 1737.23,-908.15 1733.19,-908.15"/>
<text text-anchor="middle" x="1657.54" y="-892.9" font-family="Arial" font-size="14.00" fill="#c6c5fe">_services/user.service.js</text>
</g>
<!-- _services/index.js&#45;&gt;_services/user.service.js -->
<g id="edge31" class="edge">
<title>_services/index.js&#45;&gt;_services/user.service.js</title>
<path fill="none" stroke="#757575" d="M1514.53,-924.97C1537.36,-920.32 1563.63,-914.97 1587.32,-910.15"/>
<polygon fill="#757575" stroke="#757575" points="1588.2,-913.54 1597.3,-908.11 1586.8,-906.68 1588.2,-913.54"/>
</g>
<!-- _actions/user.actions.js&#45;&gt;_constants/index.js -->
<g id="edge10" class="edge">
<title>_actions/user.actions.js&#45;&gt;_constants/index.js</title>
<path fill="none" stroke="#757575" d="M1271.42,-988.15C1345.65,-1010.06 1512.6,-1054.05 1656.54,-1054.05 1656.54,-1054.05 1656.54,-1054.05 2210.63,-1054.05 2359.19,-1054.05 2397.03,-1054.23 2544.35,-1035.05 2557.63,-1033.32 2571.77,-1030.85 2585.16,-1028.2"/>
<polygon fill="#757575" stroke="#757575" points="2586.13,-1031.57 2595.23,-1026.15 2584.73,-1024.71 2586.13,-1031.57"/>
</g>
<!-- _actions/user.actions.js&#45;&gt;_actions/index.js -->
<g id="edge9" class="edge">
<title>_actions/user.actions.js&#45;&gt;_actions/index.js</title>
<path fill="none" stroke="#757575" d="M1170.18,-964C1116.8,-949.87 1040.59,-927.06 995.93,-911.63"/>
<polygon fill="#757575" stroke="#757575" points="996.95,-908.28 986.36,-908.26 994.63,-914.88 996.95,-908.28"/>
</g>
<!-- _actions/user.actions.js&#45;&gt;_helpers/index.js -->
<g id="edge11" class="edge">
<title>_actions/user.actions.js&#45;&gt;_helpers/index.js</title>
<path fill="none" stroke="#757575" d="M1311.8,-983.42C1413.59,-990.61 1594.78,-995.75 1744.12,-959.05 1768.13,-953.15 1793.24,-940.78 1811.69,-930.35"/>
<polygon fill="#757575" stroke="#757575" points="1813.54,-933.32 1820.43,-925.27 1810.03,-927.27 1813.54,-933.32"/>
</g>
<!-- _actions/user.actions.js&#45;&gt;_services/index.js -->
<g id="edge12" class="edge">
<title>_actions/user.actions.js&#45;&gt;_services/index.js</title>
<path fill="none" stroke="#757575" d="M1300.75,-963.98C1326.13,-959.49 1355,-954.39 1380.74,-949.85"/>
<polygon fill="#757575" stroke="#757575" points="1381.57,-953.26 1390.81,-948.07 1380.35,-946.36 1381.57,-953.26"/>
</g>
<!-- _reducers/index.js -->
<g id="node15" class="node">
<title>_reducers/index.js</title>
<path fill="none" stroke="#c6c5fe" d="M2266.18,-976.15C2266.18,-976.15 2153.09,-976.15 2153.09,-976.15 2149.05,-976.15 2145.02,-972.12 2145.02,-968.08 2145.02,-968.08 2145.02,-960.02 2145.02,-960.02 2145.02,-955.98 2149.05,-951.95 2153.09,-951.95 2153.09,-951.95 2266.18,-951.95 2266.18,-951.95 2270.21,-951.95 2274.25,-955.98 2274.25,-960.02 2274.25,-960.02 2274.25,-968.08 2274.25,-968.08 2274.25,-972.12 2270.21,-976.15 2266.18,-976.15"/>
<text text-anchor="middle" x="2209.63" y="-960.9" font-family="Arial" font-size="14.00" fill="#c6c5fe">_reducers/index.js</text>
</g>
<!-- _helpers/store.js&#45;&gt;_reducers/index.js -->
<g id="edge20" class="edge">
<title>_helpers/store.js&#45;&gt;_reducers/index.js</title>
<path fill="none" stroke="#757575" d="M2082.42,-964.05C2099.02,-964.05 2117.33,-964.05 2134.72,-964.05"/>
<polygon fill="#757575" stroke="#757575" points="2134.84,-967.55 2144.84,-964.05 2134.84,-960.55 2134.84,-967.55"/>
</g>
<!-- _reducers/alert.reducer.js -->
<g id="node16" class="node">
<title>_reducers/alert.reducer.js</title>
<path fill="none" stroke="#c6c5fe" d="M2506.29,-1026.15C2506.29,-1026.15 2348.5,-1026.15 2348.5,-1026.15 2344.46,-1026.15 2340.43,-1022.12 2340.43,-1018.08 2340.43,-1018.08 2340.43,-1010.02 2340.43,-1010.02 2340.43,-1005.98 2344.46,-1001.95 2348.5,-1001.95 2348.5,-1001.95 2506.29,-1001.95 2506.29,-1001.95 2510.33,-1001.95 2514.36,-1005.98 2514.36,-1010.02 2514.36,-1010.02 2514.36,-1018.08 2514.36,-1018.08 2514.36,-1022.12 2510.33,-1026.15 2506.29,-1026.15"/>
<text text-anchor="middle" x="2427.4" y="-1010.9" font-family="Arial" font-size="14.00" fill="#c6c5fe">_reducers/alert.reducer.js</text>
</g>
<!-- _reducers/index.js&#45;&gt;_reducers/alert.reducer.js -->
<g id="edge24" class="edge">
<title>_reducers/index.js&#45;&gt;_reducers/alert.reducer.js</title>
<path fill="none" stroke="#757575" d="M2248.78,-976.14C2267.28,-981.74 2289.89,-988.22 2310.44,-993.05 2320.96,-995.52 2332.08,-997.87 2343.1,-1000.04"/>
<polygon fill="#757575" stroke="#757575" points="2342.69,-1003.52 2353.17,-1001.98 2344.01,-996.65 2342.69,-1003.52"/>
</g>
<!-- _reducers/authentication.reducer.js -->
<g id="node17" class="node">
<title>_reducers/authentication.reducer.js</title>
<path fill="none" stroke="#c6c5fe" d="M2536.24,-984.15C2536.24,-984.15 2318.55,-984.15 2318.55,-984.15 2314.52,-984.15 2310.49,-980.12 2310.49,-976.08 2310.49,-976.08 2310.49,-968.02 2310.49,-968.02 2310.49,-963.98 2314.52,-959.95 2318.55,-959.95 2318.55,-959.95 2536.24,-959.95 2536.24,-959.95 2540.27,-959.95 2544.3,-963.98 2544.3,-968.02 2544.3,-968.02 2544.3,-976.08 2544.3,-976.08 2544.3,-980.12 2540.27,-984.15 2536.24,-984.15"/>
<text text-anchor="middle" x="2427.4" y="-968.9" font-family="Arial" font-size="14.00" fill="#c6c5fe">_reducers/authentication.reducer.js</text>
</g>
<!-- _reducers/index.js&#45;&gt;_reducers/authentication.reducer.js -->
<g id="edge25" class="edge">
<title>_reducers/index.js&#45;&gt;_reducers/authentication.reducer.js</title>
<path fill="none" stroke="#757575" d="M2274.49,-966.42C2282.62,-966.72 2291.15,-967.03 2299.85,-967.36"/>
<polygon fill="#757575" stroke="#757575" points="2300,-970.87 2310.12,-967.74 2300.26,-963.87 2300,-970.87"/>
</g>
<!-- _reducers/classes.reducer.js -->
<g id="node18" class="node">
<title>_reducers/classes.reducer.js</title>
<path fill="none" stroke="#c6c5fe" d="M2516.24,-942.15C2516.24,-942.15 2338.55,-942.15 2338.55,-942.15 2334.51,-942.15 2330.48,-938.12 2330.48,-934.08 2330.48,-934.08 2330.48,-926.02 2330.48,-926.02 2330.48,-921.98 2334.51,-917.95 2338.55,-917.95 2338.55,-917.95 2516.24,-917.95 2516.24,-917.95 2520.28,-917.95 2524.31,-921.98 2524.31,-926.02 2524.31,-926.02 2524.31,-934.08 2524.31,-934.08 2524.31,-938.12 2520.28,-942.15 2516.24,-942.15"/>
<text text-anchor="middle" x="2427.4" y="-926.9" font-family="Arial" font-size="14.00" fill="#c6c5fe">_reducers/classes.reducer.js</text>
</g>
<!-- _reducers/index.js&#45;&gt;_reducers/classes.reducer.js -->
<g id="edge26" class="edge">
<title>_reducers/index.js&#45;&gt;_reducers/classes.reducer.js</title>
<path fill="none" stroke="#757575" d="M2274.49,-953.99C2294.97,-950.76 2318,-947.13 2339.81,-943.69"/>
<polygon fill="#757575" stroke="#757575" points="2340.41,-947.14 2349.74,-942.13 2339.32,-940.23 2340.41,-947.14"/>
</g>
<!-- _reducers/users.reducer.js -->
<g id="node19" class="node">
<title>_reducers/users.reducer.js</title>
<path fill="none" stroke="#c6c5fe" d="M2509.79,-900.15C2509.79,-900.15 2345,-900.15 2345,-900.15 2340.96,-900.15 2336.93,-896.12 2336.93,-892.08 2336.93,-892.08 2336.93,-884.02 2336.93,-884.02 2336.93,-879.98 2340.96,-875.95 2345,-875.95 2345,-875.95 2509.79,-875.95 2509.79,-875.95 2513.83,-875.95 2517.86,-879.98 2517.86,-884.02 2517.86,-884.02 2517.86,-892.08 2517.86,-892.08 2517.86,-896.12 2513.83,-900.15 2509.79,-900.15"/>
<text text-anchor="middle" x="2427.4" y="-884.9" font-family="Arial" font-size="14.00" fill="#c6c5fe">_reducers/users.reducer.js</text>
</g>
<!-- _reducers/index.js&#45;&gt;_reducers/users.reducer.js -->
<g id="edge27" class="edge">
<title>_reducers/index.js&#45;&gt;_reducers/users.reducer.js</title>
<path fill="none" stroke="#757575" d="M2228.55,-951.82C2247.9,-939.19 2280.05,-919.85 2310.44,-909.05 2317.2,-906.65 2324.28,-904.51 2331.47,-902.61"/>
<polygon fill="#757575" stroke="#757575" points="2332.47,-905.97 2341.33,-900.16 2330.78,-899.18 2332.47,-905.97"/>
</g>
<!-- _reducers/alert.reducer.js&#45;&gt;_constants/index.js -->
<g id="edge21" class="edge">
<title>_reducers/alert.reducer.js&#45;&gt;_constants/index.js</title>
<path fill="none" stroke="#757575" d="M2514.43,-1014.05C2532.79,-1014.05 2552.06,-1014.05 2570.04,-1014.05"/>
<polygon fill="#757575" stroke="#757575" points="2570.17,-1017.55 2580.17,-1014.05 2570.17,-1010.55 2570.17,-1017.55"/>
</g>
<!-- _reducers/authentication.reducer.js&#45;&gt;_constants/index.js -->
<g id="edge22" class="edge">
<title>_reducers/authentication.reducer.js&#45;&gt;_constants/index.js</title>
<path fill="none" stroke="#757575" d="M2496.5,-984.12C2512.23,-986.98 2528.88,-990.07 2544.35,-993.05 2555.6,-995.22 2567.52,-997.59 2579.11,-999.94"/>
<polygon fill="#757575" stroke="#757575" points="2578.68,-1003.43 2589.18,-1001.99 2580.08,-996.57 2578.68,-1003.43"/>
</g>
<!-- _reducers/classes.reducer.js&#45;&gt;_constants/index.js -->
<g id="edge23" class="edge">
<title>_reducers/classes.reducer.js&#45;&gt;_constants/index.js</title>
<path fill="none" stroke="#757575" d="M2515.48,-942.17C2525.37,-944.61 2535.18,-947.54 2544.35,-951.05 2573.25,-962.09 2603.02,-981.44 2622.99,-995.79"/>
<polygon fill="#757575" stroke="#757575" points="2621.04,-998.7 2631.18,-1001.79 2625.18,-993.06 2621.04,-998.7"/>
</g>
<!-- _reducers/users.reducer.js&#45;&gt;_constants/index.js -->
<g id="edge28" class="edge">
<title>_reducers/users.reducer.js&#45;&gt;_constants/index.js</title>
<path fill="none" stroke="#757575" d="M2517.99,-898.44C2527.17,-901.21 2536.13,-904.68 2544.35,-909.05 2582.83,-929.49 2615.65,-969.47 2633.2,-993.77"/>
<polygon fill="#757575" stroke="#757575" points="2630.34,-995.78 2638.96,-1001.95 2636.07,-991.75 2630.34,-995.78"/>
</g>
<!-- _services/class.service.js&#45;&gt;_helpers/index.js -->
<g id="edge29" class="edge">
<title>_services/class.service.js&#45;&gt;_helpers/index.js</title>
<path fill="none" stroke="#757575" d="M1744.32,-926.21C1752.9,-925.02 1761.54,-923.83 1769.92,-922.67"/>
<polygon fill="#757575" stroke="#757575" points="1770.58,-926.12 1780.01,-921.28 1769.62,-919.18 1770.58,-926.12"/>
</g>
<!-- _services/user.service.js&#45;&gt;_helpers/index.js -->
<g id="edge32" class="edge">
<title>_services/user.service.js&#45;&gt;_helpers/index.js</title>
<path fill="none" stroke="#757575" d="M1741.41,-903.83C1750.99,-904.73 1760.68,-905.64 1770.05,-906.52"/>
<polygon fill="#757575" stroke="#757575" points="1769.8,-910.01 1780.08,-907.46 1770.45,-903.04 1769.8,-910.01"/>
</g>
<!-- components/Headers/Header.js -->
<g id="node22" class="node">
<title>components/Headers/Header.js</title>
<path fill="none" stroke="#cfffac" d="M1329.44,-428.15C1329.44,-428.15 1133.35,-428.15 1133.35,-428.15 1129.32,-428.15 1125.29,-424.12 1125.29,-420.08 1125.29,-420.08 1125.29,-412.02 1125.29,-412.02 1125.29,-407.98 1129.32,-403.95 1133.35,-403.95 1133.35,-403.95 1329.44,-403.95 1329.44,-403.95 1333.47,-403.95 1337.5,-407.98 1337.5,-412.02 1337.5,-412.02 1337.5,-420.08 1337.5,-420.08 1337.5,-424.12 1333.47,-428.15 1329.44,-428.15"/>
<text text-anchor="middle" x="1231.4" y="-412.9" font-family="Arial" font-size="14.00" fill="#cfffac">components/Headers/Header.js</text>
</g>
<!-- components/Headers/StudentHeader.js -->
<g id="node23" class="node">
<title>components/Headers/StudentHeader.js</title>
<path fill="none" stroke="#cfffac" d="M1080.69,-66.15C1080.69,-66.15 836.08,-66.15 836.08,-66.15 832.04,-66.15 828.01,-62.12 828.01,-58.08 828.01,-58.08 828.01,-50.02 828.01,-50.02 828.01,-45.98 832.04,-41.95 836.08,-41.95 836.08,-41.95 1080.69,-41.95 1080.69,-41.95 1084.72,-41.95 1088.75,-45.98 1088.75,-50.02 1088.75,-50.02 1088.75,-58.08 1088.75,-58.08 1088.75,-62.12 1084.72,-66.15 1080.69,-66.15"/>
<text text-anchor="middle" x="958.38" y="-50.9" font-family="Arial" font-size="14.00" fill="#cfffac">components/Headers/StudentHeader.js</text>
</g>
<!-- components/Headers/TeacherHeader.js -->
<g id="node24" class="node">
<title>components/Headers/TeacherHeader.js</title>
<path fill="none" stroke="#cfffac" d="M1081.23,-24.15C1081.23,-24.15 835.53,-24.15 835.53,-24.15 831.5,-24.15 827.47,-20.12 827.47,-16.08 827.47,-16.08 827.47,-8.02 827.47,-8.02 827.47,-3.98 831.5,0.05 835.53,0.05 835.53,0.05 1081.23,0.05 1081.23,0.05 1085.27,0.05 1089.3,-3.98 1089.3,-8.02 1089.3,-8.02 1089.3,-16.08 1089.3,-16.08 1089.3,-20.12 1085.27,-24.15 1081.23,-24.15"/>
<text text-anchor="middle" x="958.38" y="-8.9" font-family="Arial" font-size="14.00" fill="#cfffac">components/Headers/TeacherHeader.js</text>
</g>
<!-- components/Navbars/AdminNavbar.js -->
<g id="node25" class="node">
<title>components/Navbars/AdminNavbar.js</title>
<path fill="none" stroke="#cfffac" d="M517.86,-344.15C517.86,-344.15 283.55,-344.15 283.55,-344.15 279.52,-344.15 275.49,-340.12 275.49,-336.08 275.49,-336.08 275.49,-328.02 275.49,-328.02 275.49,-323.98 279.52,-319.95 283.55,-319.95 283.55,-319.95 517.86,-319.95 517.86,-319.95 521.89,-319.95 525.93,-323.98 525.93,-328.02 525.93,-328.02 525.93,-336.08 525.93,-336.08 525.93,-340.12 521.89,-344.15 517.86,-344.15"/>
<text text-anchor="middle" x="400.71" y="-328.9" font-family="Arial" font-size="14.00" fill="#cfffac">components/Navbars/AdminNavbar.js</text>
</g>
<!-- components/PrivateRoute/PrivateRoute.js -->
<g id="node26" class="node">
<title>components/PrivateRoute/PrivateRoute.js</title>
<path fill="none" stroke="#cfffac" d="M530.55,-302.15C530.55,-302.15 270.86,-302.15 270.86,-302.15 266.83,-302.15 262.8,-298.12 262.8,-294.08 262.8,-294.08 262.8,-286.02 262.8,-286.02 262.8,-281.98 266.83,-277.95 270.86,-277.95 270.86,-277.95 530.55,-277.95 530.55,-277.95 534.58,-277.95 538.61,-281.98 538.61,-286.02 538.61,-286.02 538.61,-294.08 538.61,-294.08 538.61,-298.12 534.58,-302.15 530.55,-302.15"/>
<text text-anchor="middle" x="400.71" y="-286.9" font-family="Arial" font-size="14.00" fill="#cfffac">components/PrivateRoute/PrivateRoute.js</text>
</g>
<!-- components/Sidebar/Sidebar.js -->
<g id="node27" class="node">
<title>components/Sidebar/Sidebar.js</title>
<path fill="none" stroke="#cfffac" d="M497.42,-260.15C497.42,-260.15 303.99,-260.15 303.99,-260.15 299.95,-260.15 295.92,-256.12 295.92,-252.08 295.92,-252.08 295.92,-244.02 295.92,-244.02 295.92,-239.98 299.95,-235.95 303.99,-235.95 303.99,-235.95 497.42,-235.95 497.42,-235.95 501.46,-235.95 505.49,-239.98 505.49,-244.02 505.49,-244.02 505.49,-252.08 505.49,-252.08 505.49,-256.12 501.46,-260.15 497.42,-260.15"/>
<text text-anchor="middle" x="400.71" y="-244.9" font-family="Arial" font-size="14.00" fill="#cfffac">components/Sidebar/Sidebar.js</text>
</g>
<!-- components/Tables/ClassDetails.js -->
<g id="node28" class="node">
<title>components/Tables/ClassDetails.js</title>
<path fill="none" stroke="#cfffac" d="M1066.63,-752.15C1066.63,-752.15 850.13,-752.15 850.13,-752.15 846.1,-752.15 842.07,-748.12 842.07,-744.08 842.07,-744.08 842.07,-736.02 842.07,-736.02 842.07,-731.98 846.1,-727.95 850.13,-727.95 850.13,-727.95 1066.63,-727.95 1066.63,-727.95 1070.67,-727.95 1074.7,-731.98 1074.7,-736.02 1074.7,-736.02 1074.7,-744.08 1074.7,-744.08 1074.7,-748.12 1070.67,-752.15 1066.63,-752.15"/>
<text text-anchor="middle" x="958.38" y="-736.9" font-family="Arial" font-size="14.00" fill="#cfffac">components/Tables/ClassDetails.js</text>
</g>
<!-- components/Tables/Classes.js -->
<g id="node29" class="node">
<title>components/Tables/Classes.js</title>
<path fill="none" stroke="#c6c5fe" d="M1052.63,-710.15C1052.63,-710.15 864.14,-710.15 864.14,-710.15 860.11,-710.15 856.07,-706.12 856.07,-702.08 856.07,-702.08 856.07,-694.02 856.07,-694.02 856.07,-689.98 860.11,-685.95 864.14,-685.95 864.14,-685.95 1052.63,-685.95 1052.63,-685.95 1056.66,-685.95 1060.69,-689.98 1060.69,-694.02 1060.69,-694.02 1060.69,-702.08 1060.69,-702.08 1060.69,-706.12 1056.66,-710.15 1052.63,-710.15"/>
<text text-anchor="middle" x="958.38" y="-694.9" font-family="Arial" font-size="14.00" fill="#c6c5fe">components/Tables/Classes.js</text>
</g>
<!-- components/Tables/Classes.js&#45;&gt;components/Headers/Header.js -->
<g id="edge33" class="edge">
<title>components/Tables/Classes.js&#45;&gt;components/Headers/Header.js</title>
<path fill="none" stroke="#757575" d="M1060.7,-687.02C1070.93,-683.26 1080.71,-678.37 1089.34,-672.05 1171.71,-611.7 1211.74,-488.04 1225.1,-437.9"/>
<polygon fill="#757575" stroke="#757575" points="1228.52,-438.66 1227.62,-428.1 1221.74,-436.92 1228.52,-438.66"/>
</g>
<!-- components/Tables/TeacherTeaching.js -->
<g id="node30" class="node">
<title>components/Tables/TeacherTeaching.js</title>
<path fill="none" stroke="#cfffac" d="M1080.68,-592.15C1080.68,-592.15 836.08,-592.15 836.08,-592.15 832.05,-592.15 828.02,-588.12 828.02,-584.08 828.02,-584.08 828.02,-576.02 828.02,-576.02 828.02,-571.98 832.05,-567.95 836.08,-567.95 836.08,-567.95 1080.68,-567.95 1080.68,-567.95 1084.71,-567.95 1088.75,-571.98 1088.75,-576.02 1088.75,-576.02 1088.75,-584.08 1088.75,-584.08 1088.75,-588.12 1084.71,-592.15 1080.68,-592.15"/>
<text text-anchor="middle" x="958.38" y="-576.9" font-family="Arial" font-size="14.00" fill="#cfffac">components/Tables/TeacherTeaching.js</text>
</g>
<!-- components/Tables/Teachers.js -->
<g id="node31" class="node">
<title>components/Tables/Teachers.js</title>
<path fill="none" stroke="#c6c5fe" d="M1056.14,-550.15C1056.14,-550.15 860.63,-550.15 860.63,-550.15 856.59,-550.15 852.56,-546.12 852.56,-542.08 852.56,-542.08 852.56,-534.02 852.56,-534.02 852.56,-529.98 856.59,-525.95 860.63,-525.95 860.63,-525.95 1056.14,-525.95 1056.14,-525.95 1060.17,-525.95 1064.21,-529.98 1064.21,-534.02 1064.21,-534.02 1064.21,-542.08 1064.21,-542.08 1064.21,-546.12 1060.17,-550.15 1056.14,-550.15"/>
<text text-anchor="middle" x="958.38" y="-534.9" font-family="Arial" font-size="14.00" fill="#c6c5fe">components/Tables/Teachers.js</text>
</g>
<!-- components/Tables/Teachers.js&#45;&gt;components/Headers/Header.js -->
<g id="edge34" class="edge">
<title>components/Tables/Teachers.js&#45;&gt;components/Headers/Header.js</title>
<path fill="none" stroke="#757575" d="M1045.09,-525.98C1060.15,-522.43 1075.44,-517.88 1089.34,-512.05 1135.67,-492.6 1182.54,-456.77 1208.89,-434.81"/>
<polygon fill="#757575" stroke="#757575" points="1211.32,-437.34 1216.69,-428.21 1206.8,-431.99 1211.32,-437.34"/>
</g>
<!-- index.js -->
<g id="node32" class="node">
<title>index.js</title>
<path fill="none" stroke="#c6c5fe" d="M55.64,-365.15C55.64,-365.15 7.83,-365.15 7.83,-365.15 3.8,-365.15 -0.24,-361.12 -0.24,-357.08 -0.24,-357.08 -0.24,-349.02 -0.24,-349.02 -0.24,-344.98 3.8,-340.95 7.83,-340.95 7.83,-340.95 55.64,-340.95 55.64,-340.95 59.67,-340.95 63.7,-344.98 63.7,-349.02 63.7,-349.02 63.7,-357.08 63.7,-357.08 63.7,-361.12 59.67,-365.15 55.64,-365.15"/>
<text text-anchor="middle" x="31.73" y="-349.9" font-family="Arial" font-size="14.00" fill="#c6c5fe">index.js</text>
</g>
<!-- index.js&#45;&gt;_helpers/index.js -->
<g id="edge35" class="edge">
<title>index.js&#45;&gt;_helpers/index.js</title>
<path fill="none" stroke="#757575" d="M35.19,-365.48C51.29,-442.94 148.92,-856.05 399.71,-856.05 399.71,-856.05 399.71,-856.05 1455.21,-856.05 1583.89,-856.05 1618.6,-846.7 1744.12,-875.05 1765.27,-879.83 1787.86,-888.63 1805.77,-896.56"/>
<polygon fill="#757575" stroke="#757575" points="1804.64,-899.89 1815.19,-900.84 1807.54,-893.52 1804.64,-899.89"/>
</g>
<!-- layouts/Admin.js -->
<g id="node33" class="node">
<title>layouts/Admin.js</title>
<path fill="none" stroke="#c6c5fe" d="M213.97,-365.15C213.97,-365.15 112.25,-365.15 112.25,-365.15 108.21,-365.15 104.18,-361.12 104.18,-357.08 104.18,-357.08 104.18,-349.02 104.18,-349.02 104.18,-344.98 108.21,-340.95 112.25,-340.95 112.25,-340.95 213.97,-340.95 213.97,-340.95 218.01,-340.95 222.04,-344.98 222.04,-349.02 222.04,-349.02 222.04,-357.08 222.04,-357.08 222.04,-361.12 218.01,-365.15 213.97,-365.15"/>
<text text-anchor="middle" x="163.11" y="-349.9" font-family="Arial" font-size="14.00" fill="#c6c5fe">layouts/Admin.js</text>
</g>
<!-- index.js&#45;&gt;layouts/Admin.js -->
<g id="edge36" class="edge">
<title>index.js&#45;&gt;layouts/Admin.js</title>
<path fill="none" stroke="#757575" d="M63.72,-353.05C72.9,-353.05 83.33,-353.05 93.89,-353.05"/>
<polygon fill="#757575" stroke="#757575" points="94.02,-356.55 104.02,-353.05 94.02,-349.55 94.02,-356.55"/>
</g>
<!-- layouts/Auth.js -->
<g id="node34" class="node">
<title>layouts/Auth.js</title>
<path fill="none" stroke="#c6c5fe" d="M208.59,-407.15C208.59,-407.15 117.63,-407.15 117.63,-407.15 113.59,-407.15 109.56,-403.12 109.56,-399.08 109.56,-399.08 109.56,-391.02 109.56,-391.02 109.56,-386.98 113.59,-382.95 117.63,-382.95 117.63,-382.95 208.59,-382.95 208.59,-382.95 212.62,-382.95 216.66,-386.98 216.66,-391.02 216.66,-391.02 216.66,-399.08 216.66,-399.08 216.66,-403.12 212.62,-407.15 208.59,-407.15"/>
<text text-anchor="middle" x="163.11" y="-391.9" font-family="Arial" font-size="14.00" fill="#c6c5fe">layouts/Auth.js</text>
</g>
<!-- index.js&#45;&gt;layouts/Auth.js -->
<g id="edge37" class="edge">
<title>index.js&#45;&gt;layouts/Auth.js</title>
<path fill="none" stroke="#757575" d="M63.72,-363.11C79.1,-368.1 97.99,-374.23 115.1,-379.79"/>
<polygon fill="#757575" stroke="#757575" points="114.33,-383.22 124.93,-382.98 116.5,-376.56 114.33,-383.22"/>
</g>
<!-- layouts/Student.js -->
<g id="node35" class="node">
<title>layouts/Student.js</title>
<path fill="none" stroke="#c6c5fe" d="M218.05,-323.15C218.05,-323.15 108.17,-323.15 108.17,-323.15 104.13,-323.15 100.1,-319.12 100.1,-315.08 100.1,-315.08 100.1,-307.02 100.1,-307.02 100.1,-302.98 104.13,-298.95 108.17,-298.95 108.17,-298.95 218.05,-298.95 218.05,-298.95 222.09,-298.95 226.12,-302.98 226.12,-307.02 226.12,-307.02 226.12,-315.08 226.12,-315.08 226.12,-319.12 222.09,-323.15 218.05,-323.15"/>
<text text-anchor="middle" x="163.11" y="-307.9" font-family="Arial" font-size="14.00" fill="#c6c5fe">layouts/Student.js</text>
</g>
<!-- index.js&#45;&gt;layouts/Student.js -->
<g id="edge38" class="edge">
<title>index.js&#45;&gt;layouts/Student.js</title>
<path fill="none" stroke="#757575" d="M63.72,-342.99C79.1,-338 97.99,-331.86 115.1,-326.31"/>
<polygon fill="#757575" stroke="#757575" points="116.5,-329.54 124.93,-323.12 114.33,-322.88 116.5,-329.54"/>
</g>
<!-- layouts/Teacher.js -->
<g id="node36" class="node">
<title>layouts/Teacher.js</title>
<path fill="none" stroke="#c6c5fe" d="M218.83,-281.15C218.83,-281.15 107.39,-281.15 107.39,-281.15 103.36,-281.15 99.33,-277.12 99.33,-273.08 99.33,-273.08 99.33,-265.02 99.33,-265.02 99.33,-260.98 103.36,-256.95 107.39,-256.95 107.39,-256.95 218.83,-256.95 218.83,-256.95 222.86,-256.95 226.89,-260.98 226.89,-265.02 226.89,-265.02 226.89,-273.08 226.89,-273.08 226.89,-277.12 222.86,-281.15 218.83,-281.15"/>
<text text-anchor="middle" x="163.11" y="-265.9" font-family="Arial" font-size="14.00" fill="#c6c5fe">layouts/Teacher.js</text>
</g>
<!-- index.js&#45;&gt;layouts/Teacher.js -->
<g id="edge39" class="edge">
<title>index.js&#45;&gt;layouts/Teacher.js</title>
<path fill="none" stroke="#757575" d="M42.83,-340.71C54.94,-326.64 76.51,-303.81 99.47,-290.05 102.32,-288.34 105.33,-286.75 108.43,-285.27"/>
<polygon fill="#757575" stroke="#757575" points="110.11,-288.35 117.9,-281.17 107.33,-281.93 110.11,-288.35"/>
</g>
<!-- layouts/Admin.js&#45;&gt;components/Navbars/AdminNavbar.js -->
<g id="edge40" class="edge">
<title>layouts/Admin.js&#45;&gt;components/Navbars/AdminNavbar.js</title>
<path fill="none" stroke="#757575" d="M222.04,-347.89C235.46,-346.69 250.28,-345.37 265.47,-344.01"/>
<polygon fill="#757575" stroke="#757575" points="265.85,-347.49 275.5,-343.12 265.23,-340.52 265.85,-347.49"/>
</g>
<!-- layouts/Admin.js&#45;&gt;components/PrivateRoute/PrivateRoute.js -->
<g id="edge41" class="edge">
<title>layouts/Admin.js&#45;&gt;components/PrivateRoute/PrivateRoute.js</title>
<path fill="none" stroke="#757575" d="M204.35,-340.92C211.9,-338.26 219.65,-335.27 226.75,-332.05 243.62,-324.4 245.29,-317.23 262.75,-311.05 269.61,-308.62 276.76,-306.47 284.04,-304.58"/>
<polygon fill="#757575" stroke="#757575" points="285.14,-307.91 294.03,-302.14 283.48,-301.11 285.14,-307.91"/>
</g>
<!-- layouts/Admin.js&#45;&gt;components/Sidebar/Sidebar.js -->
<g id="edge42" class="edge">
<title>layouts/Admin.js&#45;&gt;components/Sidebar/Sidebar.js</title>
<path fill="none" stroke="#757575" d="M212.54,-340.91C217.63,-338.47 222.5,-335.54 226.75,-332.05 251.67,-311.58 236.17,-287.31 262.75,-269.05 269.95,-264.1 277.87,-260.13 286.15,-256.97"/>
<polygon fill="#757575" stroke="#757575" points="287.31,-260.27 295.64,-253.73 285.05,-253.65 287.31,-260.27"/>
</g>
<!-- routes.js -->
<g id="node37" class="node">
<title>routes.js</title>
<path fill="none" stroke="#c6c5fe" d="M427.05,-386.15C427.05,-386.15 374.36,-386.15 374.36,-386.15 370.33,-386.15 366.3,-382.12 366.3,-378.08 366.3,-378.08 366.3,-370.02 366.3,-370.02 366.3,-365.98 370.33,-361.95 374.36,-361.95 374.36,-361.95 427.05,-361.95 427.05,-361.95 431.08,-361.95 435.12,-365.98 435.12,-370.02 435.12,-370.02 435.12,-378.08 435.12,-378.08 435.12,-382.12 431.08,-386.15 427.05,-386.15"/>
<text text-anchor="middle" x="400.71" y="-370.9" font-family="Arial" font-size="14.00" fill="#c6c5fe">routes.js</text>
</g>
<!-- layouts/Admin.js&#45;&gt;routes.js -->
<g id="edge43" class="edge">
<title>layouts/Admin.js&#45;&gt;routes.js</title>
<path fill="none" stroke="#757575" d="M222.04,-358.21C263.39,-361.9 318.14,-366.78 355.87,-370.14"/>
<polygon fill="#757575" stroke="#757575" points="355.77,-373.65 366.04,-371.05 356.39,-366.67 355.77,-373.65"/>
</g>
<!-- layouts/Auth.js&#45;&gt;routes.js -->
<g id="edge44" class="edge">
<title>layouts/Auth.js&#45;&gt;routes.js</title>
<path fill="none" stroke="#757575" d="M216.69,-390.36C258.64,-386.62 316.71,-381.45 356.11,-377.94"/>
<polygon fill="#757575" stroke="#757575" points="356.55,-381.41 366.2,-377.04 355.92,-374.44 356.55,-381.41"/>
</g>
<!-- layouts/Student.js&#45;&gt;components/Navbars/AdminNavbar.js -->
<g id="edge45" class="edge">
<title>layouts/Student.js&#45;&gt;components/Navbars/AdminNavbar.js</title>
<path fill="none" stroke="#757575" d="M226.32,-316.59C238.6,-317.69 251.94,-318.88 265.57,-320.09"/>
<polygon fill="#757575" stroke="#757575" points="265.27,-323.58 275.54,-320.98 265.89,-316.61 265.27,-323.58"/>
</g>
<!-- layouts/Student.js&#45;&gt;components/PrivateRoute/PrivateRoute.js -->
<g id="edge46" class="edge">
<title>layouts/Student.js&#45;&gt;components/PrivateRoute/PrivateRoute.js</title>
<path fill="none" stroke="#757575" d="M226.32,-305.5C235.12,-304.72 244.46,-303.89 254.06,-303.03"/>
<polygon fill="#757575" stroke="#757575" points="254.5,-306.51 264.15,-302.13 253.88,-299.53 254.5,-306.51"/>
</g>
<!-- layouts/Student.js&#45;&gt;components/Sidebar/Sidebar.js -->
<g id="edge47" class="edge">
<title>layouts/Student.js&#45;&gt;components/Sidebar/Sidebar.js</title>
<path fill="none" stroke="#757575" d="M204.35,-298.92C211.9,-296.26 219.65,-293.27 226.75,-290.05 243.62,-282.4 245.29,-275.23 262.75,-269.05 270.25,-266.4 278.09,-264.08 286.07,-262.05"/>
<polygon fill="#757575" stroke="#757575" points="286.93,-265.45 295.85,-259.73 285.31,-258.64 286.93,-265.45"/>
</g>
<!-- layouts/Student.js&#45;&gt;routes.js -->
<g id="edge48" class="edge">
<title>layouts/Student.js&#45;&gt;routes.js</title>
<path fill="none" stroke="#757575" d="M204.35,-323.18C211.9,-325.84 219.65,-328.83 226.75,-332.05 243.62,-339.7 245.29,-346.87 262.75,-353.05 292.91,-363.72 328.7,-368.97 356.13,-371.56"/>
<polygon fill="#757575" stroke="#757575" points="355.94,-375.05 366.2,-372.42 356.54,-368.08 355.94,-375.05"/>
</g>
<!-- layouts/Teacher.js&#45;&gt;components/Navbars/AdminNavbar.js -->
<g id="edge49" class="edge">
<title>layouts/Teacher.js&#45;&gt;components/Navbars/AdminNavbar.js</title>
<path fill="none" stroke="#757575" d="M204.35,-281.18C211.9,-283.84 219.65,-286.83 226.75,-290.05 243.62,-297.7 245.29,-304.87 262.75,-311.05 269.61,-313.48 276.76,-315.62 284.04,-317.52"/>
<polygon fill="#757575" stroke="#757575" points="283.48,-320.99 294.03,-319.96 285.14,-314.19 283.48,-320.99"/>
</g>
<!-- layouts/Teacher.js&#45;&gt;components/PrivateRoute/PrivateRoute.js -->
<g id="edge50" class="edge">
<title>layouts/Teacher.js&#45;&gt;components/PrivateRoute/PrivateRoute.js</title>
<path fill="none" stroke="#757575" d="M226.94,-274.65C235.54,-275.42 244.66,-276.23 254.02,-277.06"/>
<polygon fill="#757575" stroke="#757575" points="254,-280.58 264.27,-277.98 254.62,-273.6 254,-280.58"/>
</g>
<!-- layouts/Teacher.js&#45;&gt;components/Sidebar/Sidebar.js -->
<g id="edge51" class="edge">
<title>layouts/Teacher.js&#45;&gt;components/Sidebar/Sidebar.js</title>
<path fill="none" stroke="#757575" d="M226.94,-263.45C245.01,-261.84 265.31,-260.03 285.47,-258.23"/>
<polygon fill="#757575" stroke="#757575" points="286.02,-261.7 295.67,-257.32 285.4,-254.72 286.02,-261.7"/>
</g>
<!-- layouts/Teacher.js&#45;&gt;routes.js -->
<g id="edge52" class="edge">
<title>layouts/Teacher.js&#45;&gt;routes.js</title>
<path fill="none" stroke="#757575" d="M212.54,-281.19C217.63,-283.63 222.5,-286.56 226.75,-290.05 251.67,-310.52 236.17,-334.79 262.75,-353.05 289.86,-371.67 327.07,-376.39 355.86,-376.75"/>
<polygon fill="#757575" stroke="#757575" points="356.07,-380.25 366.06,-376.7 356.04,-373.25 356.07,-380.25"/>
</g>
<!-- views/admin&#45;layout/Class.js -->
<g id="node38" class="node">
<title>views/admin&#45;layout/Class.js</title>
<path fill="none" stroke="#c6c5fe" d="M768.92,-769.15C768.92,-769.15 597.16,-769.15 597.16,-769.15 593.13,-769.15 589.1,-765.12 589.1,-761.08 589.1,-761.08 589.1,-753.02 589.1,-753.02 589.1,-748.98 593.13,-744.95 597.16,-744.95 597.16,-744.95 768.92,-744.95 768.92,-744.95 772.95,-744.95 776.99,-748.98 776.99,-753.02 776.99,-753.02 776.99,-761.08 776.99,-761.08 776.99,-765.12 772.95,-769.15 768.92,-769.15"/>
<text text-anchor="middle" x="683.04" y="-753.9" font-family="Arial" font-size="14.00" fill="#c6c5fe">views/admin&#45;layout/Class.js</text>
</g>
<!-- routes.js&#45;&gt;views/admin&#45;layout/Class.js -->
<g id="edge53" class="edge">
<title>routes.js&#45;&gt;views/admin&#45;layout/Class.js</title>
<path fill="none" stroke="#757575" d="M405.32,-386.23C419.57,-432.51 475.99,-599.77 574.66,-699.05 592.75,-717.25 617.74,-731.2 639.07,-740.86"/>
<polygon fill="#757575" stroke="#757575" points="637.7,-744.08 648.26,-744.87 640.5,-737.67 637.7,-744.08"/>
</g>
<!-- views/admin&#45;layout/Classes.js -->
<g id="node39" class="node">
<title>views/admin&#45;layout/Classes.js</title>
<path fill="none" stroke="#c6c5fe" d="M776.21,-690.15C776.21,-690.15 589.88,-690.15 589.88,-690.15 585.84,-690.15 581.81,-686.12 581.81,-682.08 581.81,-682.08 581.81,-674.02 581.81,-674.02 581.81,-669.98 585.84,-665.95 589.88,-665.95 589.88,-665.95 776.21,-665.95 776.21,-665.95 780.24,-665.95 784.27,-669.98 784.27,-674.02 784.27,-674.02 784.27,-682.08 784.27,-682.08 784.27,-686.12 780.24,-690.15 776.21,-690.15"/>
<text text-anchor="middle" x="683.04" y="-674.9" font-family="Arial" font-size="14.00" fill="#c6c5fe">views/admin&#45;layout/Classes.js</text>
</g>
<!-- routes.js&#45;&gt;views/admin&#45;layout/Classes.js -->
<g id="edge54" class="edge">
<title>routes.js&#45;&gt;views/admin&#45;layout/Classes.js</title>
<path fill="none" stroke="#757575" d="M407.63,-386.36C426.86,-425.25 491.12,-547.19 574.66,-621.05 593.99,-638.14 619.36,-651.91 640.58,-661.63"/>
<polygon fill="#757575" stroke="#757575" points="639.44,-664.96 650,-665.81 642.28,-658.56 639.44,-664.96"/>
</g>
<!-- views/admin&#45;layout/Student.js -->
<g id="node40" class="node">
<title>views/admin&#45;layout/Student.js</title>
<path fill="none" stroke="#c6c5fe" d="M1051.02,-470.15C1051.02,-470.15 865.75,-470.15 865.75,-470.15 861.72,-470.15 857.68,-466.12 857.68,-462.08 857.68,-462.08 857.68,-454.02 857.68,-454.02 857.68,-449.98 861.72,-445.95 865.75,-445.95 865.75,-445.95 1051.02,-445.95 1051.02,-445.95 1055.05,-445.95 1059.08,-449.98 1059.08,-454.02 1059.08,-454.02 1059.08,-462.08 1059.08,-462.08 1059.08,-466.12 1055.05,-470.15 1051.02,-470.15"/>
<text text-anchor="middle" x="958.38" y="-454.9" font-family="Arial" font-size="14.00" fill="#c6c5fe">views/admin&#45;layout/Student.js</text>
</g>
<!-- routes.js&#45;&gt;views/admin&#45;layout/Student.js -->
<g id="edge55" class="edge">
<title>routes.js&#45;&gt;views/admin&#45;layout/Student.js</title>
<path fill="none" stroke="#757575" d="M435.38,-381.61C470.13,-389.25 525.99,-401.02 574.66,-409.05 666.22,-424.15 770.76,-437.26 847.42,-446.11"/>
<polygon fill="#757575" stroke="#757575" points="847.24,-449.61 857.57,-447.27 848.04,-442.66 847.24,-449.61"/>
</g>
<!-- views/admin&#45;layout/Students.js -->
<g id="node41" class="node">
<title>views/admin&#45;layout/Students.js</title>
<path fill="none" stroke="#c6c5fe" d="M1054.52,-428.15C1054.52,-428.15 862.25,-428.15 862.25,-428.15 858.22,-428.15 854.18,-424.12 854.18,-420.08 854.18,-420.08 854.18,-412.02 854.18,-412.02 854.18,-407.98 858.22,-403.95 862.25,-403.95 862.25,-403.95 1054.52,-403.95 1054.52,-403.95 1058.55,-403.95 1062.58,-407.98 1062.58,-412.02 1062.58,-412.02 1062.58,-420.08 1062.58,-420.08 1062.58,-424.12 1058.55,-428.15 1054.52,-428.15"/>
<text text-anchor="middle" x="958.38" y="-412.9" font-family="Arial" font-size="14.00" fill="#c6c5fe">views/admin&#45;layout/Students.js</text>
</g>
<!-- routes.js&#45;&gt;views/admin&#45;layout/Students.js -->
<g id="edge56" class="edge">
<title>routes.js&#45;&gt;views/admin&#45;layout/Students.js</title>
<path fill="none" stroke="#757575" d="M435.18,-376.84C470.01,-379.72 526.15,-384.31 574.66,-388.05 665.25,-395.03 767.93,-402.52 844.12,-407.99"/>
<polygon fill="#757575" stroke="#757575" points="843.99,-411.49 854.22,-408.72 844.49,-404.51 843.99,-411.49"/>
</g>
<!-- views/admin&#45;layout/Subject.js -->
<g id="node42" class="node">
<title>views/admin&#45;layout/Subject.js</title>
<path fill="none" stroke="#c6c5fe" d="M1049.95,-386.15C1049.95,-386.15 866.81,-386.15 866.81,-386.15 862.78,-386.15 858.75,-382.12 858.75,-378.08 858.75,-378.08 858.75,-370.02 858.75,-370.02 858.75,-365.98 862.78,-361.95 866.81,-361.95 866.81,-361.95 1049.95,-361.95 1049.95,-361.95 1053.98,-361.95 1058.02,-365.98 1058.02,-370.02 1058.02,-370.02 1058.02,-378.08 1058.02,-378.08 1058.02,-382.12 1053.98,-386.15 1049.95,-386.15"/>
<text text-anchor="middle" x="958.38" y="-370.9" font-family="Arial" font-size="14.00" fill="#c6c5fe">views/admin&#45;layout/Subject.js</text>
</g>
<!-- routes.js&#45;&gt;views/admin&#45;layout/Subject.js -->
<g id="edge57" class="edge">
<title>routes.js&#45;&gt;views/admin&#45;layout/Subject.js</title>
<path fill="none" stroke="#757575" d="M435.21,-374.05C515.23,-374.05 720.3,-374.05 848.34,-374.05"/>
<polygon fill="#757575" stroke="#757575" points="848.57,-377.55 858.57,-374.05 848.57,-370.55 848.57,-377.55"/>
</g>
<!-- views/admin&#45;layout/Subjects.js -->
<g id="node43" class="node">
<title>views/admin&#45;layout/Subjects.js</title>
<path fill="none" stroke="#c6c5fe" d="M1053.45,-344.15C1053.45,-344.15 863.31,-344.15 863.31,-344.15 859.28,-344.15 855.25,-340.12 855.25,-336.08 855.25,-336.08 855.25,-328.02 855.25,-328.02 855.25,-323.98 859.28,-319.95 863.31,-319.95 863.31,-319.95 1053.45,-319.95 1053.45,-319.95 1057.48,-319.95 1061.52,-323.98 1061.52,-328.02 1061.52,-328.02 1061.52,-336.08 1061.52,-336.08 1061.52,-340.12 1057.48,-344.15 1053.45,-344.15"/>
<text text-anchor="middle" x="958.38" y="-328.9" font-family="Arial" font-size="14.00" fill="#c6c5fe">views/admin&#45;layout/Subjects.js</text>
</g>
<!-- routes.js&#45;&gt;views/admin&#45;layout/Subjects.js -->
<g id="edge58" class="edge">
<title>routes.js&#45;&gt;views/admin&#45;layout/Subjects.js</title>
<path fill="none" stroke="#757575" d="M435.21,-371.52C514.49,-365.52 716.51,-350.26 844.76,-340.56"/>
<polygon fill="#757575" stroke="#757575" points="845.31,-344.03 855.01,-339.79 844.78,-337.05 845.31,-344.03"/>
</g>
<!-- views/admin&#45;layout/Teacher.js -->
<g id="node44" class="node">
<title>views/admin&#45;layout/Teacher.js</title>
<path fill="none" stroke="#c6c5fe" d="M775.95,-612.15C775.95,-612.15 590.14,-612.15 590.14,-612.15 586.1,-612.15 582.07,-608.12 582.07,-604.08 582.07,-604.08 582.07,-596.02 582.07,-596.02 582.07,-591.98 586.1,-587.95 590.14,-587.95 590.14,-587.95 775.95,-587.95 775.95,-587.95 779.98,-587.95 784.01,-591.98 784.01,-596.02 784.01,-596.02 784.01,-604.08 784.01,-604.08 784.01,-608.12 779.98,-612.15 775.95,-612.15"/>
<text text-anchor="middle" x="683.04" y="-596.9" font-family="Arial" font-size="14.00" fill="#c6c5fe">views/admin&#45;layout/Teacher.js</text>
</g>
<!-- routes.js&#45;&gt;views/admin&#45;layout/Teacher.js -->
<g id="edge59" class="edge">
<title>routes.js&#45;&gt;views/admin&#45;layout/Teacher.js</title>
<path fill="none" stroke="#757575" d="M412.57,-386.3C438.59,-415.22 507.38,-489.04 574.66,-539.05 597.59,-556.1 625.75,-571.93 647.48,-583.19"/>
<polygon fill="#757575" stroke="#757575" points="646.17,-586.45 656.67,-587.88 649.35,-580.21 646.17,-586.45"/>
</g>
<!-- views/admin&#45;layout/Teachers.js -->
<g id="node45" class="node">
<title>views/admin&#45;layout/Teachers.js</title>
<path fill="none" stroke="#c6c5fe" d="M779.72,-530.15C779.72,-530.15 586.36,-530.15 586.36,-530.15 582.33,-530.15 578.3,-526.12 578.3,-522.08 578.3,-522.08 578.3,-514.02 578.3,-514.02 578.3,-509.98 582.33,-505.95 586.36,-505.95 586.36,-505.95 779.72,-505.95 779.72,-505.95 783.75,-505.95 787.79,-509.98 787.79,-514.02 787.79,-514.02 787.79,-522.08 787.79,-522.08 787.79,-526.12 783.75,-530.15 779.72,-530.15"/>
<text text-anchor="middle" x="683.04" y="-514.9" font-family="Arial" font-size="14.00" fill="#c6c5fe">views/admin&#45;layout/Teachers.js</text>
</g>
<!-- routes.js&#45;&gt;views/admin&#45;layout/Teachers.js -->
<g id="edge60" class="edge">
<title>routes.js&#45;&gt;views/admin&#45;layout/Teachers.js</title>
<path fill="none" stroke="#757575" d="M422.47,-386.11C454.68,-404.66 518.78,-441 574.66,-469.05 597.59,-480.56 623.77,-492.53 644.54,-501.75"/>
<polygon fill="#757575" stroke="#757575" points="643.4,-505.08 653.96,-505.92 646.23,-498.68 643.4,-505.08"/>
</g>
<!-- views/auth&#45;layout/Login.js -->
<g id="node46" class="node">
<title>views/auth&#45;layout/Login.js</title>
<path fill="none" stroke="#c6c5fe" d="M763.29,-828.15C763.29,-828.15 602.8,-828.15 602.8,-828.15 598.77,-828.15 594.73,-824.12 594.73,-820.08 594.73,-820.08 594.73,-812.02 594.73,-812.02 594.73,-807.98 598.77,-803.95 602.8,-803.95 602.8,-803.95 763.29,-803.95 763.29,-803.95 767.32,-803.95 771.35,-807.98 771.35,-812.02 771.35,-812.02 771.35,-820.08 771.35,-820.08 771.35,-824.12 767.32,-828.15 763.29,-828.15"/>
<text text-anchor="middle" x="683.04" y="-812.9" font-family="Arial" font-size="14.00" fill="#c6c5fe">views/auth&#45;layout/Login.js</text>
</g>
<!-- routes.js&#45;&gt;views/auth&#45;layout/Login.js -->
<g id="edge61" class="edge">
<title>routes.js&#45;&gt;views/auth&#45;layout/Login.js</title>
<path fill="none" stroke="#757575" d="M403.35,-386.29C411.25,-440.5 450.27,-661.42 574.66,-778.05 584.93,-787.68 597.8,-794.9 611.02,-800.29"/>
<polygon fill="#757575" stroke="#757575" points="610.09,-803.68 620.68,-803.91 612.55,-797.12 610.09,-803.68"/>
</g>
<!-- views/student&#45;layout/Grades.js -->
<g id="node47" class="node">
<title>views/student&#45;layout/Grades.js</title>
<path fill="none" stroke="#c6c5fe" d="M778.12,-304.15C778.12,-304.15 587.97,-304.15 587.97,-304.15 583.93,-304.15 579.9,-300.12 579.9,-296.08 579.9,-296.08 579.9,-288.02 579.9,-288.02 579.9,-283.98 583.93,-279.95 587.97,-279.95 587.97,-279.95 778.12,-279.95 778.12,-279.95 782.15,-279.95 786.18,-283.98 786.18,-288.02 786.18,-288.02 786.18,-296.08 786.18,-296.08 786.18,-300.12 782.15,-304.15 778.12,-304.15"/>
<text text-anchor="middle" x="683.04" y="-288.9" font-family="Arial" font-size="14.00" fill="#c6c5fe">views/student&#45;layout/Grades.js</text>
</g>
<!-- routes.js&#45;&gt;views/student&#45;layout/Grades.js -->
<g id="edge62" class="edge">
<title>routes.js&#45;&gt;views/student&#45;layout/Grades.js</title>
<path fill="none" stroke="#757575" d="M435.39,-374.27C464.14,-373.24 505.91,-368.75 538.66,-353.05 558.23,-343.67 555.6,-330.43 574.66,-320.05 584.18,-314.87 594.71,-310.61 605.33,-307.12"/>
<polygon fill="#757575" stroke="#757575" points="606.56,-310.4 615.09,-304.13 604.51,-303.71 606.56,-310.4"/>
</g>
<!-- views/student&#45;layout/Profile.js -->
<g id="node48" class="node">
<title>views/student&#45;layout/Profile.js</title>
<path fill="none" stroke="#c6c5fe" d="M775.39,-78.15C775.39,-78.15 590.69,-78.15 590.69,-78.15 586.66,-78.15 582.63,-74.12 582.63,-70.08 582.63,-70.08 582.63,-62.02 582.63,-62.02 582.63,-57.98 586.66,-53.95 590.69,-53.95 590.69,-53.95 775.39,-53.95 775.39,-53.95 779.42,-53.95 783.46,-57.98 783.46,-62.02 783.46,-62.02 783.46,-70.08 783.46,-70.08 783.46,-74.12 779.42,-78.15 775.39,-78.15"/>
<text text-anchor="middle" x="683.04" y="-62.9" font-family="Arial" font-size="14.00" fill="#c6c5fe">views/student&#45;layout/Profile.js</text>
</g>
<!-- routes.js&#45;&gt;views/student&#45;layout/Profile.js -->
<g id="edge63" class="edge">
<title>routes.js&#45;&gt;views/student&#45;layout/Profile.js</title>
<path fill="none" stroke="#757575" d="M435.38,-379.09C466.59,-381.7 512.08,-379.88 538.66,-353.05 617.67,-273.31 503.12,-189.56 574.66,-103.05 582,-94.18 591.58,-87.43 601.99,-82.29"/>
<polygon fill="#757575" stroke="#757575" points="603.58,-85.42 611.32,-78.18 600.76,-79.01 603.58,-85.42"/>
</g>
<!-- views/student&#45;layout/Subjects.js -->
<g id="node49" class="node">
<title>views/student&#45;layout/Subjects.js</title>
<path fill="none" stroke="#c6c5fe" d="M1057.74,-222.15C1057.74,-222.15 859.02,-222.15 859.02,-222.15 854.99,-222.15 850.96,-218.12 850.96,-214.08 850.96,-214.08 850.96,-206.02 850.96,-206.02 850.96,-201.98 854.99,-197.95 859.02,-197.95 859.02,-197.95 1057.74,-197.95 1057.74,-197.95 1061.78,-197.95 1065.81,-201.98 1065.81,-206.02 1065.81,-206.02 1065.81,-214.08 1065.81,-214.08 1065.81,-218.12 1061.78,-222.15 1057.74,-222.15"/>
<text text-anchor="middle" x="958.38" y="-206.9" font-family="Arial" font-size="14.00" fill="#c6c5fe">views/student&#45;layout/Subjects.js</text>
</g>
<!-- routes.js&#45;&gt;views/student&#45;layout/Subjects.js -->
<g id="edge64" class="edge">
<title>routes.js&#45;&gt;views/student&#45;layout/Subjects.js</title>
<path fill="none" stroke="#757575" d="M435.32,-377.43C465.4,-378.64 509.18,-375.68 538.66,-353.05 570.23,-328.82 543.16,-295.38 574.66,-271.05 585.88,-262.39 748.12,-238.7 857.72,-223.52"/>
<polygon fill="#757575" stroke="#757575" points="858.4,-226.96 867.83,-222.13 857.44,-220.03 858.4,-226.96"/>
</g>
<!-- views/teacher&#45;layout/Grades.js -->
<g id="node50" class="node">
<title>views/teacher&#45;layout/Grades.js</title>
<path fill="none" stroke="#c6c5fe" d="M778.89,-223.15C778.89,-223.15 587.19,-223.15 587.19,-223.15 583.16,-223.15 579.13,-219.12 579.13,-215.08 579.13,-215.08 579.13,-207.02 579.13,-207.02 579.13,-202.98 583.16,-198.95 587.19,-198.95 587.19,-198.95 778.89,-198.95 778.89,-198.95 782.92,-198.95 786.96,-202.98 786.96,-207.02 786.96,-207.02 786.96,-215.08 786.96,-215.08 786.96,-219.12 782.92,-223.15 778.89,-223.15"/>
<text text-anchor="middle" x="683.04" y="-207.9" font-family="Arial" font-size="14.00" fill="#c6c5fe">views/teacher&#45;layout/Grades.js</text>
</g>
<!-- routes.js&#45;&gt;views/teacher&#45;layout/Grades.js -->
<g id="edge65" class="edge">
<title>routes.js&#45;&gt;views/teacher&#45;layout/Grades.js</title>
<path fill="none" stroke="#757575" d="M435.34,-378.15C465.85,-379.94 510.29,-377.43 538.66,-353.05 579.28,-318.15 535.73,-274.82 574.66,-238.05 578.81,-234.13 583.44,-230.76 588.38,-227.86"/>
<polygon fill="#757575" stroke="#757575" points="590.29,-230.81 597.59,-223.13 587.09,-224.58 590.29,-230.81"/>
</g>
<!-- views/teacher&#45;layout/Profile.js -->
<g id="node51" class="node">
<title>views/teacher&#45;layout/Profile.js</title>
<path fill="none" stroke="#c6c5fe" d="M775.66,-28.15C775.66,-28.15 590.42,-28.15 590.42,-28.15 586.39,-28.15 582.36,-24.12 582.36,-20.08 582.36,-20.08 582.36,-12.02 582.36,-12.02 582.36,-7.98 586.39,-3.95 590.42,-3.95 590.42,-3.95 775.66,-3.95 775.66,-3.95 779.7,-3.95 783.73,-7.98 783.73,-12.02 783.73,-12.02 783.73,-20.08 783.73,-20.08 783.73,-24.12 779.7,-28.15 775.66,-28.15"/>
<text text-anchor="middle" x="683.04" y="-12.9" font-family="Arial" font-size="14.00" fill="#c6c5fe">views/teacher&#45;layout/Profile.js</text>
</g>
<!-- routes.js&#45;&gt;views/teacher&#45;layout/Profile.js -->
<g id="edge66" class="edge">
<title>routes.js&#45;&gt;views/teacher&#45;layout/Profile.js</title>
<path fill="none" stroke="#757575" d="M435.25,-379.22C466.58,-381.98 512.35,-380.31 538.66,-353.05 634.35,-253.87 484.65,-149.42 574.66,-45.05 578.62,-40.46 583.22,-36.56 588.25,-33.25"/>
<polygon fill="#757575" stroke="#757575" points="590.12,-36.21 597.08,-28.21 586.66,-30.13 590.12,-36.21"/>
</g>
<!-- views/teacher&#45;layout/Students.js -->
<g id="node52" class="node">
<title>views/teacher&#45;layout/Students.js</title>
<path fill="none" stroke="#c6c5fe" d="M783.24,-179.15C783.24,-179.15 582.84,-179.15 582.84,-179.15 578.81,-179.15 574.78,-175.12 574.78,-171.08 574.78,-171.08 574.78,-163.02 574.78,-163.02 574.78,-158.98 578.81,-154.95 582.84,-154.95 582.84,-154.95 783.24,-154.95 783.24,-154.95 787.27,-154.95 791.31,-158.98 791.31,-163.02 791.31,-163.02 791.31,-171.08 791.31,-171.08 791.31,-175.12 787.27,-179.15 783.24,-179.15"/>
<text text-anchor="middle" x="683.04" y="-163.9" font-family="Arial" font-size="14.00" fill="#c6c5fe">views/teacher&#45;layout/Students.js</text>
</g>
<!-- routes.js&#45;&gt;views/teacher&#45;layout/Students.js -->
<g id="edge67" class="edge">
<title>routes.js&#45;&gt;views/teacher&#45;layout/Students.js</title>
<path fill="none" stroke="#757575" d="M435.24,-378.66C466.12,-380.9 511.19,-378.79 538.66,-353.05 592.8,-302.33 522.03,-242.34 574.66,-190.05 576.55,-188.17 578.56,-186.42 580.66,-184.81"/>
<polygon fill="#757575" stroke="#757575" points="582.78,-187.6 589.21,-179.18 578.94,-181.75 582.78,-187.6"/>
</g>
<!-- views/teacher&#45;layout/Subjects.js -->
<g id="node53" class="node">
<title>views/teacher&#45;layout/Subjects.js</title>
<path fill="none" stroke="#c6c5fe" d="M782.68,-136.15C782.68,-136.15 583.41,-136.15 583.41,-136.15 579.38,-136.15 575.34,-132.12 575.34,-128.08 575.34,-128.08 575.34,-120.02 575.34,-120.02 575.34,-115.98 579.38,-111.95 583.41,-111.95 583.41,-111.95 782.68,-111.95 782.68,-111.95 786.71,-111.95 790.74,-115.98 790.74,-120.02 790.74,-120.02 790.74,-128.08 790.74,-128.08 790.74,-132.12 786.71,-136.15 782.68,-136.15"/>
<text text-anchor="middle" x="683.04" y="-120.9" font-family="Arial" font-size="14.00" fill="#c6c5fe">views/teacher&#45;layout/Subjects.js</text>
</g>
<!-- routes.js&#45;&gt;views/teacher&#45;layout/Subjects.js -->
<g id="edge68" class="edge">
<title>routes.js&#45;&gt;views/teacher&#45;layout/Subjects.js</title>
<path fill="none" stroke="#757575" d="M435.21,-378.92C466.29,-381.39 511.69,-379.48 538.66,-353.05 605.35,-287.68 509.62,-213.06 574.66,-146.05 575.94,-144.73 577.27,-143.49 578.65,-142.31"/>
<polygon fill="#757575" stroke="#757575" points="581.01,-144.92 587.06,-136.22 576.91,-139.24 581.01,-144.92"/>
</g>
<!-- views/admin&#45;layout/Class.js&#45;&gt;_actions/index.js -->
<g id="edge69" class="edge">
<title>views/admin&#45;layout/Class.js&#45;&gt;_actions/index.js</title>
<path fill="none" stroke="#757575" d="M724.36,-769.12C744.85,-775.81 769.9,-784.83 791.42,-795.05 843.5,-819.78 900.02,-856.52 931.84,-878.2"/>
<polygon fill="#757575" stroke="#757575" points="929.9,-881.12 940.13,-883.89 933.87,-875.34 929.9,-881.12"/>
</g>
<!-- views/admin&#45;layout/Class.js&#45;&gt;components/Headers/Header.js -->
<g id="edge70" class="edge">
<title>views/admin&#45;layout/Class.js&#45;&gt;components/Headers/Header.js</title>
<path fill="none" stroke="#757575" d="M771.44,-769.12C874.86,-781.5 1039.32,-794.64 1089.34,-761.05 1202.1,-685.33 1224.78,-501.85 1229.29,-438.22"/>
<polygon fill="#757575" stroke="#757575" points="1232.79,-438.3 1229.92,-428.1 1225.81,-437.87 1232.79,-438.3"/>
</g>
<!-- views/admin&#45;layout/Class.js&#45;&gt;components/Tables/ClassDetails.js -->
<g id="edge71" class="edge">
<title>views/admin&#45;layout/Class.js&#45;&gt;components/Tables/ClassDetails.js</title>
<path fill="none" stroke="#757575" d="M777.35,-751.25C794.83,-750.16 813.37,-749.01 831.65,-747.87"/>
<polygon fill="#757575" stroke="#757575" points="832.01,-751.35 841.77,-747.24 831.58,-744.37 832.01,-751.35"/>
</g>
<!-- views/admin&#45;layout/Classes.js&#45;&gt;_actions/index.js -->
<g id="edge72" class="edge">
<title>views/admin&#45;layout/Classes.js&#45;&gt;_actions/index.js</title>
<path fill="none" stroke="#757575" d="M711.28,-690.21C733.74,-700.83 765.94,-717.42 791.42,-736.05 851.04,-779.62 910.93,-843.5 939.73,-875.78"/>
<polygon fill="#757575" stroke="#757575" points="937.44,-878.47 946.69,-883.64 942.68,-873.83 937.44,-878.47"/>
</g>
<!-- views/admin&#45;layout/Classes.js&#45;&gt;components/Headers/Header.js -->
<g id="edge73" class="edge">
<title>views/admin&#45;layout/Classes.js&#45;&gt;components/Headers/Header.js</title>
<path fill="none" stroke="#757575" d="M784.3,-676.31C887.48,-672.84 1039.92,-662.53 1089.34,-632.05 1164.33,-585.8 1207.37,-483.07 1223.27,-437.99"/>
<polygon fill="#757575" stroke="#757575" points="1226.66,-438.91 1226.58,-428.31 1220.03,-436.64 1226.66,-438.91"/>
</g>
<!-- views/admin&#45;layout/Classes.js&#45;&gt;components/Tables/Classes.js -->
<g id="edge74" class="edge">
<title>views/admin&#45;layout/Classes.js&#45;&gt;components/Tables/Classes.js</title>
<path fill="none" stroke="#757575" d="M784.66,-685.41C804.58,-686.87 825.61,-688.41 845.87,-689.89"/>
<polygon fill="#757575" stroke="#757575" points="845.84,-693.4 856.06,-690.64 846.35,-686.42 845.84,-693.4"/>
</g>
<!-- views/admin&#45;layout/Student.js&#45;&gt;components/Headers/Header.js -->
<g id="edge75" class="edge">
<title>views/admin&#45;layout/Student.js&#45;&gt;components/Headers/Header.js</title>
<path fill="none" stroke="#757575" d="M1037.41,-445.96C1070.28,-440.86 1108.7,-434.91 1142.57,-429.66"/>
<polygon fill="#757575" stroke="#757575" points="1143.11,-433.12 1152.45,-428.13 1142.03,-426.2 1143.11,-433.12"/>
</g>
<!-- views/admin&#45;layout/Students.js&#45;&gt;components/Headers/Header.js -->
<g id="edge76" class="edge">
<title>views/admin&#45;layout/Students.js&#45;&gt;components/Headers/Header.js</title>
<path fill="none" stroke="#757575" d="M1062.61,-416.05C1079.75,-416.05 1097.61,-416.05 1115.02,-416.05"/>
<polygon fill="#757575" stroke="#757575" points="1115.2,-419.55 1125.2,-416.05 1115.2,-412.55 1115.2,-419.55"/>
</g>
<!-- views/admin&#45;layout/Subject.js&#45;&gt;components/Headers/Header.js -->
<g id="edge77" class="edge">
<title>views/admin&#45;layout/Subject.js&#45;&gt;components/Headers/Header.js</title>
<path fill="none" stroke="#757575" d="M1037.41,-386.14C1070.28,-391.24 1108.7,-397.19 1142.57,-402.44"/>
<polygon fill="#757575" stroke="#757575" points="1142.03,-405.9 1152.45,-403.97 1143.11,-398.98 1142.03,-405.9"/>
</g>
<!-- views/admin&#45;layout/Subjects.js&#45;&gt;components/Headers/Header.js -->
<g id="edge78" class="edge">
<title>views/admin&#45;layout/Subjects.js&#45;&gt;components/Headers/Header.js</title>
<path fill="none" stroke="#757575" d="M1052.69,-344.12C1065.13,-346.6 1077.62,-349.55 1089.34,-353.05 1128.59,-364.77 1171.22,-384.93 1199.22,-399.29"/>
<polygon fill="#757575" stroke="#757575" points="1197.64,-402.41 1208.13,-403.91 1200.86,-396.2 1197.64,-402.41"/>
</g>
<!-- views/admin&#45;layout/Teacher.js&#45;&gt;_actions/index.js -->
<g id="edge79" class="edge">
<title>views/admin&#45;layout/Teacher.js&#45;&gt;_actions/index.js</title>
<path fill="none" stroke="#757575" d="M721.95,-612.11C744.9,-621.17 773.17,-635.72 791.42,-657.05 823.23,-694.21 801.87,-719.34 827.42,-761.05 856.67,-808.76 905.29,-853.31 934.04,-877.4"/>
<polygon fill="#757575" stroke="#757575" points="932,-880.25 941.94,-883.92 936.46,-874.86 932,-880.25"/>
</g>
<!-- views/admin&#45;layout/Teacher.js&#45;&gt;components/Headers/Header.js -->
<g id="edge80" class="edge">
<title>views/admin&#45;layout/Teacher.js&#45;&gt;components/Headers/Header.js</title>
<path fill="none" stroke="#757575" d="M727.38,-612.12C804.74,-631.16 969.68,-660.29 1089.34,-601.05 1159.41,-566.36 1204.17,-478.34 1221.83,-437.49"/>
<polygon fill="#757575" stroke="#757575" points="1225.09,-438.75 1225.73,-428.18 1218.64,-436.05 1225.09,-438.75"/>
</g>
<!-- views/admin&#45;layout/Teacher.js&#45;&gt;components/Tables/TeacherTeaching.js -->
<g id="edge81" class="edge">
<title>views/admin&#45;layout/Teacher.js&#45;&gt;components/Tables/TeacherTeaching.js</title>
<path fill="none" stroke="#757575" d="M784.27,-592.72C795.12,-591.92 806.3,-591.1 817.51,-590.28"/>
<polygon fill="#757575" stroke="#757575" points="818.08,-593.75 827.8,-589.53 817.57,-586.77 818.08,-593.75"/>
</g>
<!-- views/admin&#45;layout/Teachers.js&#45;&gt;_actions/index.js -->
<g id="edge82" class="edge">
<title>views/admin&#45;layout/Teachers.js&#45;&gt;_actions/index.js</title>
<path fill="none" stroke="#757575" d="M721.46,-530.1C745.13,-539.66 774.37,-555.4 791.42,-579.05 839.65,-645.93 789.29,-687.94 827.42,-761.05 853.03,-810.14 902.03,-853.63 932,-877.26"/>
<polygon fill="#757575" stroke="#757575" points="930.23,-880.32 940.28,-883.67 934.51,-874.78 930.23,-880.32"/>
</g>
<!-- views/admin&#45;layout/Teachers.js&#45;&gt;components/Headers/Header.js -->
<g id="edge83" class="edge">
<title>views/admin&#45;layout/Teachers.js&#45;&gt;components/Headers/Header.js</title>
<path fill="none" stroke="#757575" d="M788.1,-517.25C870.95,-514.42 989.21,-505.47 1089.34,-479.05 1129.41,-468.47 1172.51,-447.71 1200.37,-432.91"/>
<polygon fill="#757575" stroke="#757575" points="1202.07,-435.97 1209.21,-428.15 1198.75,-429.81 1202.07,-435.97"/>
</g>
<!-- views/admin&#45;layout/Teachers.js&#45;&gt;components/Tables/Teachers.js -->
<g id="edge84" class="edge">
<title>views/admin&#45;layout/Teachers.js&#45;&gt;components/Tables/Teachers.js</title>
<path fill="none" stroke="#757575" d="M788.16,-525.67C805.98,-526.97 824.59,-528.33 842.67,-529.66"/>
<polygon fill="#757575" stroke="#757575" points="842.42,-533.15 852.65,-530.39 842.93,-526.17 842.42,-533.15"/>
</g>
<!-- views/auth&#45;layout/Login.js&#45;&gt;_actions/index.js -->
<g id="edge85" class="edge">
<title>views/auth&#45;layout/Login.js&#45;&gt;_actions/index.js</title>
<path fill="none" stroke="#757575" d="M725.26,-828.11C773.6,-842.26 853.76,-865.72 906.08,-881.03"/>
<polygon fill="#757575" stroke="#757575" points="905.25,-884.44 915.83,-883.89 907.22,-877.72 905.25,-884.44"/>
</g>
<!-- views/auth&#45;layout/Login.js&#45;&gt;_helpers/index.js -->
<g id="edge86" class="edge">
<title>views/auth&#45;layout/Login.js&#45;&gt;_helpers/index.js</title>
<path fill="none" stroke="#757575" d="M771.57,-816.57C879.47,-817.16 1068.43,-818.05 1230.4,-818.05 1230.4,-818.05 1230.4,-818.05 1455.21,-818.05 1584.06,-818.05 1623.58,-796.54 1744.12,-842.05 1773.96,-853.32 1802.55,-876.81 1820.54,-893.69"/>
<polygon fill="#757575" stroke="#757575" points="1818.4,-896.49 1828.03,-900.91 1823.26,-891.45 1818.4,-896.49"/>
</g>
<!-- views/student&#45;layout/Grades.js&#45;&gt;components/Headers/Header.js -->
<g id="edge87" class="edge">
<title>views/student&#45;layout/Grades.js&#45;&gt;components/Headers/Header.js</title>
<path fill="none" stroke="#757575" d="M786.32,-280.66C870.24,-275.08 990.84,-275.83 1089.34,-311.05 1139.62,-329.03 1187.04,-371.45 1212.04,-396.53"/>
<polygon fill="#757575" stroke="#757575" points="1209.56,-399 1219.05,-403.71 1214.57,-394.11 1209.56,-399"/>
</g>
<!-- variables/student&#45;grades&#45;chart.js -->
<g id="node54" class="node">
<title>variables/student&#45;grades&#45;chart.js</title>
<path fill="none" stroke="#cfffac" d="M1059.91,-264.15C1059.91,-264.15 856.85,-264.15 856.85,-264.15 852.82,-264.15 848.79,-260.12 848.79,-256.08 848.79,-256.08 848.79,-248.02 848.79,-248.02 848.79,-243.98 852.82,-239.95 856.85,-239.95 856.85,-239.95 1059.91,-239.95 1059.91,-239.95 1063.95,-239.95 1067.98,-243.98 1067.98,-248.02 1067.98,-248.02 1067.98,-256.08 1067.98,-256.08 1067.98,-260.12 1063.95,-264.15 1059.91,-264.15"/>
<text text-anchor="middle" x="958.38" y="-248.9" font-family="Arial" font-size="14.00" fill="#cfffac">variables/student&#45;grades&#45;chart.js</text>
</g>
<!-- views/student&#45;layout/Grades.js&#45;&gt;variables/student&#45;grades&#45;chart.js -->
<g id="edge88" class="edge">
<title>views/student&#45;layout/Grades.js&#45;&gt;variables/student&#45;grades&#45;chart.js</title>
<path fill="none" stroke="#757575" d="M766.42,-279.99C797.35,-275.47 832.69,-270.3 864.5,-265.64"/>
<polygon fill="#757575" stroke="#757575" points="865.31,-269.06 874.7,-264.15 864.3,-262.13 865.31,-269.06"/>
</g>
<!-- views/student&#45;layout/Profile.js&#45;&gt;components/Headers/StudentHeader.js -->
<g id="edge89" class="edge">
<title>views/student&#45;layout/Profile.js&#45;&gt;components/Headers/StudentHeader.js</title>
<path fill="none" stroke="#757575" d="M783.5,-61.68C794.71,-61.19 806.29,-60.68 817.9,-60.17"/>
<polygon fill="#757575" stroke="#757575" points="818.26,-63.66 828.09,-59.73 817.95,-56.67 818.26,-63.66"/>
</g>
<!-- views/student&#45;layout/Subjects.js&#45;&gt;components/Headers/Header.js -->
<g id="edge90" class="edge">
<title>views/student&#45;layout/Subjects.js&#45;&gt;components/Headers/Header.js</title>
<path fill="none" stroke="#757575" d="M1065.72,-220.2C1074,-223.08 1081.99,-226.64 1089.34,-231.05 1155.78,-270.85 1201.82,-354.82 1220.75,-394.46"/>
<polygon fill="#757575" stroke="#757575" points="1217.58,-395.94 1224.98,-403.53 1223.93,-392.99 1217.58,-395.94"/>
</g>
<!-- views/teacher&#45;layout/Grades.js&#45;&gt;components/Headers/Header.js -->
<g id="edge91" class="edge">
<title>views/teacher&#45;layout/Grades.js&#45;&gt;components/Headers/Header.js</title>
<path fill="none" stroke="#757575" d="M750.78,-198.99C850.59,-182.36 1033.06,-157.76 1089.34,-189.05 1170.21,-234.01 1210.68,-346.67 1224.62,-394.27"/>
<polygon fill="#757575" stroke="#757575" points="1221.25,-395.22 1227.33,-403.9 1227.99,-393.33 1221.25,-395.22"/>
</g>
<!-- views/teacher&#45;layout/Profile.js&#45;&gt;components/Headers/TeacherHeader.js -->
<g id="edge92" class="edge">
<title>views/teacher&#45;layout/Profile.js&#45;&gt;components/Headers/TeacherHeader.js</title>
<path fill="none" stroke="#757575" d="M783.88,-14.59C794.63,-14.43 805.7,-14.27 816.8,-14.11"/>
<polygon fill="#757575" stroke="#757575" points="817.05,-17.6 827,-13.96 816.95,-10.6 817.05,-17.6"/>
</g>
<!-- views/teacher&#45;layout/Students.js&#45;&gt;components/Headers/Header.js -->
<g id="edge93" class="edge">
<title>views/teacher&#45;layout/Students.js&#45;&gt;components/Headers/Header.js</title>
<path fill="none" stroke="#757575" d="M791.78,-156.02C894.57,-147.58 1040.74,-141.65 1089.34,-170.05 1174.88,-220.03 1213.1,-343.44 1225.54,-393.95"/>
<polygon fill="#757575" stroke="#757575" points="1222.16,-394.91 1227.87,-403.84 1228.98,-393.3 1222.16,-394.91"/>
</g>
<!-- views/teacher&#45;layout/Subjects.js&#45;&gt;components/Headers/Header.js -->
<g id="edge94" class="edge">
<title>views/teacher&#45;layout/Subjects.js&#45;&gt;components/Headers/Header.js</title>
<path fill="none" stroke="#757575" d="M734.65,-111.97C816.43,-95.48 979.56,-75.41 1089.34,-146.05 1179.65,-204.16 1215.44,-339.96 1226.38,-393.64"/>
<polygon fill="#757575" stroke="#757575" points="1223.01,-394.64 1228.35,-403.79 1229.88,-393.31 1223.01,-394.64"/>
</g>
</g>
</svg>
