<?xml version="1.0" encoding="UTF-8" standalone="no"?>
<!DOCTYPE svg PUBLIC "-//W3C//DTD SVG 1.1//EN"
 "http://www.w3.org/Graphics/SVG/1.1/DTD/svg11.dtd">
<!-- Generated by graphviz version 2.43.0 (0)
 -->
<!-- Title: G Pages: 1 -->
<svg width="1023pt" height="419pt"
 viewBox="0.00 0.00 1022.74 418.89" xmlns="http://www.w3.org/2000/svg" xmlns:xlink="http://www.w3.org/1999/xlink">
<g id="graph0" class="graph" transform="scale(1 1) rotate(0) translate(21.6 397.29)">
<title>G</title>
<polygon fill="#111111" stroke="transparent" points="-21.6,21.6 -21.6,-397.29 1001.14,-397.29 1001.14,21.6 -21.6,21.6"/>
<!-- _helpers/db.js -->
<g id="node1" class="node">
<title>_helpers/db.js</title>
<path fill="none" stroke="#c6c5fe" d="M702.46,-118.15C702.46,-118.15 615.26,-118.15 615.26,-118.15 611.23,-118.15 607.2,-114.12 607.2,-110.08 607.2,-110.08 607.2,-102.02 607.2,-102.02 607.2,-97.98 611.23,-93.95 615.26,-93.95 615.26,-93.95 702.46,-93.95 702.46,-93.95 706.5,-93.95 710.53,-97.98 710.53,-102.02 710.53,-102.02 710.53,-110.08 710.53,-110.08 710.53,-114.12 706.5,-118.15 702.46,-118.15"/>
<text text-anchor="middle" x="658.86" y="-102.9" font-family="Arial" font-size="14.00" fill="#c6c5fe">_helpers/db.js</text>
</g>
<!-- classSubject/classSubject.model.js -->
<g id="node2" class="node">
<title>classSubject/classSubject.model.js</title>
<path fill="none" stroke="#cfffac" d="M971.52,-24.15C971.52,-24.15 754.46,-24.15 754.46,-24.15 750.43,-24.15 746.4,-20.12 746.4,-16.08 746.4,-16.08 746.4,-8.02 746.4,-8.02 746.4,-3.98 750.43,0.05 754.46,0.05 754.46,0.05 971.52,0.05 971.52,0.05 975.56,0.05 979.59,-3.98 979.59,-8.02 979.59,-8.02 979.59,-16.08 979.59,-16.08 979.59,-20.12 975.56,-24.15 971.52,-24.15"/>
<text text-anchor="middle" x="862.99" y="-8.9" font-family="Arial" font-size="14.00" fill="#cfffac">classSubject/classSubject.model.js</text>
</g>
<!-- _helpers/db.js&#45;&gt;classSubject/classSubject.model.js -->
<g id="edge1" class="edge">
<title>_helpers/db.js&#45;&gt;classSubject/classSubject.model.js</title>
<path fill="none" stroke="#757575" d="M670.52,-93.72C685.62,-77.1 714.96,-47.88 746.45,-33.05 750.88,-30.96 755.5,-29.08 760.24,-27.38"/>
<polygon fill="#757575" stroke="#757575" points="761.67,-30.6 770.09,-24.16 759.5,-23.94 761.67,-30.6"/>
</g>
<!-- classes/class.model.js -->
<g id="node3" class="node">
<title>classes/class.model.js</title>
<path fill="none" stroke="#cfffac" d="M932.42,-192.15C932.42,-192.15 793.57,-192.15 793.57,-192.15 789.54,-192.15 785.5,-188.12 785.5,-184.08 785.5,-184.08 785.5,-176.02 785.5,-176.02 785.5,-171.98 789.54,-167.95 793.57,-167.95 793.57,-167.95 932.42,-167.95 932.42,-167.95 936.45,-167.95 940.48,-171.98 940.48,-176.02 940.48,-176.02 940.48,-184.08 940.48,-184.08 940.48,-188.12 936.45,-192.15 932.42,-192.15"/>
<text text-anchor="middle" x="862.99" y="-176.9" font-family="Arial" font-size="14.00" fill="#cfffac">classes/class.model.js</text>
</g>
<!-- _helpers/db.js&#45;&gt;classes/class.model.js -->
<g id="edge2" class="edge">
<title>_helpers/db.js&#45;&gt;classes/class.model.js</title>
<path fill="none" stroke="#757575" d="M685.54,-118.19C693.67,-122.31 702.58,-127.13 710.45,-132.05 727.4,-142.66 728.12,-151.05 746.45,-159.05 755.72,-163.1 765.74,-166.37 775.87,-169.01"/>
<polygon fill="#757575" stroke="#757575" points="775.06,-172.41 785.6,-171.35 776.7,-165.6 775.06,-172.41"/>
</g>
<!-- config.json -->
<g id="node4" class="node">
<title>config.json</title>
<path fill="none" stroke="#cfffac" d="M896.36,-234.15C896.36,-234.15 829.63,-234.15 829.63,-234.15 825.6,-234.15 821.56,-230.12 821.56,-226.08 821.56,-226.08 821.56,-218.02 821.56,-218.02 821.56,-213.98 825.6,-209.95 829.63,-209.95 829.63,-209.95 896.36,-209.95 896.36,-209.95 900.39,-209.95 904.42,-213.98 904.42,-218.02 904.42,-218.02 904.42,-226.08 904.42,-226.08 904.42,-230.12 900.39,-234.15 896.36,-234.15"/>
<text text-anchor="middle" x="862.99" y="-218.9" font-family="Arial" font-size="14.00" fill="#cfffac">config.json</text>
</g>
<!-- _helpers/db.js&#45;&gt;config.json -->
<g id="edge3" class="edge">
<title>_helpers/db.js&#45;&gt;config.json</title>
<path fill="none" stroke="#757575" d="M690.77,-118.12C697.8,-121.85 704.84,-126.48 710.45,-132.05 734.98,-156.43 718.6,-180.54 746.45,-201.05 764.94,-214.67 789.53,-220.37 811.28,-222.48"/>
<polygon fill="#757575" stroke="#757575" points="811.13,-225.98 821.36,-223.23 811.65,-219 811.13,-225.98"/>
</g>
<!-- grades/grade.model.js -->
<g id="node5" class="node">
<title>grades/grade.model.js</title>
<path fill="none" stroke="#cfffac" d="M931.95,-150.15C931.95,-150.15 794.04,-150.15 794.04,-150.15 790,-150.15 785.97,-146.12 785.97,-142.08 785.97,-142.08 785.97,-134.02 785.97,-134.02 785.97,-129.98 790,-125.95 794.04,-125.95 794.04,-125.95 931.95,-125.95 931.95,-125.95 935.99,-125.95 940.02,-129.98 940.02,-134.02 940.02,-134.02 940.02,-142.08 940.02,-142.08 940.02,-146.12 935.99,-150.15 931.95,-150.15"/>
<text text-anchor="middle" x="862.99" y="-134.9" font-family="Arial" font-size="14.00" fill="#cfffac">grades/grade.model.js</text>
</g>
<!-- _helpers/db.js&#45;&gt;grades/grade.model.js -->
<g id="edge4" class="edge">
<title>_helpers/db.js&#45;&gt;grades/grade.model.js</title>
<path fill="none" stroke="#757575" d="M710.61,-114.08C730.28,-117.2 753.37,-120.85 775.51,-124.36"/>
<polygon fill="#757575" stroke="#757575" points="775.17,-127.85 785.6,-125.95 776.27,-120.93 775.17,-127.85"/>
</g>
<!-- subjects/subject.model.js -->
<g id="node6" class="node">
<title>subjects/subject.model.js</title>
<path fill="none" stroke="#cfffac" d="M940.56,-108.15C940.56,-108.15 785.43,-108.15 785.43,-108.15 781.4,-108.15 777.37,-104.12 777.37,-100.08 777.37,-100.08 777.37,-92.02 777.37,-92.02 777.37,-87.98 781.4,-83.95 785.43,-83.95 785.43,-83.95 940.56,-83.95 940.56,-83.95 944.59,-83.95 948.62,-87.98 948.62,-92.02 948.62,-92.02 948.62,-100.08 948.62,-100.08 948.62,-104.12 944.59,-108.15 940.56,-108.15"/>
<text text-anchor="middle" x="862.99" y="-92.9" font-family="Arial" font-size="14.00" fill="#cfffac">subjects/subject.model.js</text>
</g>
<!-- _helpers/db.js&#45;&gt;subjects/subject.model.js -->
<g id="edge5" class="edge">
<title>_helpers/db.js&#45;&gt;subjects/subject.model.js</title>
<path fill="none" stroke="#757575" d="M710.61,-103.54C727.74,-102.69 747.45,-101.72 766.88,-100.75"/>
<polygon fill="#757575" stroke="#757575" points="767.18,-104.24 776.99,-100.25 766.83,-97.25 767.18,-104.24"/>
</g>
<!-- users/user.model.js -->
<g id="node7" class="node">
<title>users/user.model.js</title>
<path fill="none" stroke="#cfffac" d="M923.04,-66.15C923.04,-66.15 802.95,-66.15 802.95,-66.15 798.92,-66.15 794.89,-62.12 794.89,-58.08 794.89,-58.08 794.89,-50.02 794.89,-50.02 794.89,-45.98 798.92,-41.95 802.95,-41.95 802.95,-41.95 923.04,-41.95 923.04,-41.95 927.07,-41.95 931.1,-45.98 931.1,-50.02 931.1,-50.02 931.1,-58.08 931.1,-58.08 931.1,-62.12 927.07,-66.15 923.04,-66.15"/>
<text text-anchor="middle" x="862.99" y="-50.9" font-family="Arial" font-size="14.00" fill="#cfffac">users/user.model.js</text>
</g>
<!-- _helpers/db.js&#45;&gt;users/user.model.js -->
<g id="edge6" class="edge">
<title>_helpers/db.js&#45;&gt;users/user.model.js</title>
<path fill="none" stroke="#757575" d="M689.93,-93.91C706.41,-87.61 727.32,-80.17 746.45,-75.05 758.65,-71.78 771.71,-68.86 784.5,-66.32"/>
<polygon fill="#757575" stroke="#757575" points="785.52,-69.69 794.67,-64.36 784.19,-62.82 785.52,-69.69"/>
</g>
<!-- _helpers/error&#45;handler.js -->
<g id="node8" class="node">
<title>_helpers/error&#45;handler.js</title>
<path fill="none" stroke="#cfffac" d="M273.78,-314.15C273.78,-314.15 122.42,-314.15 122.42,-314.15 118.39,-314.15 114.36,-310.12 114.36,-306.08 114.36,-306.08 114.36,-298.02 114.36,-298.02 114.36,-293.98 118.39,-289.95 122.42,-289.95 122.42,-289.95 273.78,-289.95 273.78,-289.95 277.81,-289.95 281.84,-293.98 281.84,-298.02 281.84,-298.02 281.84,-306.08 281.84,-306.08 281.84,-310.12 277.81,-314.15 273.78,-314.15"/>
<text text-anchor="middle" x="198.1" y="-298.9" font-family="Arial" font-size="14.00" fill="#cfffac">_helpers/error&#45;handler.js</text>
</g>
<!-- _helpers/initializeDb.js -->
<g id="node9" class="node">
<title>_helpers/initializeDb.js</title>
<path fill="none" stroke="#c6c5fe" d="M519.4,-106.15C519.4,-106.15 379.95,-106.15 379.95,-106.15 375.92,-106.15 371.89,-102.12 371.89,-98.08 371.89,-98.08 371.89,-90.02 371.89,-90.02 371.89,-85.98 375.92,-81.95 379.95,-81.95 379.95,-81.95 519.4,-81.95 519.4,-81.95 523.43,-81.95 527.47,-85.98 527.47,-90.02 527.47,-90.02 527.47,-98.08 527.47,-98.08 527.47,-102.12 523.43,-106.15 519.4,-106.15"/>
<text text-anchor="middle" x="449.68" y="-90.9" font-family="Arial" font-size="14.00" fill="#c6c5fe">_helpers/initializeDb.js</text>
</g>
<!-- _helpers/initializeDb.js&#45;&gt;_helpers/db.js -->
<g id="edge7" class="edge">
<title>_helpers/initializeDb.js&#45;&gt;_helpers/db.js</title>
<path fill="none" stroke="#757575" d="M527.53,-98.5C550.5,-99.83 575.34,-101.27 597.12,-102.53"/>
<polygon fill="#757575" stroke="#757575" points="597.04,-106.03 607.22,-103.12 597.44,-99.04 597.04,-106.03"/>
</g>
<!-- _helpers/jwt.js -->
<g id="node10" class="node">
<title>_helpers/jwt.js</title>
<path fill="none" stroke="#c6c5fe" d="M242.24,-272.15C242.24,-272.15 153.96,-272.15 153.96,-272.15 149.93,-272.15 145.9,-268.12 145.9,-264.08 145.9,-264.08 145.9,-256.02 145.9,-256.02 145.9,-251.98 149.93,-247.95 153.96,-247.95 153.96,-247.95 242.24,-247.95 242.24,-247.95 246.27,-247.95 250.3,-251.98 250.3,-256.02 250.3,-256.02 250.3,-264.08 250.3,-264.08 250.3,-268.12 246.27,-272.15 242.24,-272.15"/>
<text text-anchor="middle" x="198.1" y="-256.9" font-family="Arial" font-size="14.00" fill="#c6c5fe">_helpers/jwt.js</text>
</g>
<!-- _helpers/jwt.js&#45;&gt;config.json -->
<g id="edge8" class="edge">
<title>_helpers/jwt.js&#45;&gt;config.json</title>
<path fill="none" stroke="#757575" d="M250.3,-258.17C342.42,-254.65 542.17,-246.38 710.45,-235.05 744.15,-232.78 782.01,-229.53 811.46,-226.85"/>
<polygon fill="#757575" stroke="#757575" points="811.86,-230.33 821.5,-225.93 811.22,-223.36 811.86,-230.33"/>
</g>
<!-- users/user.service.js -->
<g id="node11" class="node">
<title>users/user.service.js</title>
<path fill="none" stroke="#c6c5fe" d="M512.93,-232.15C512.93,-232.15 386.42,-232.15 386.42,-232.15 382.39,-232.15 378.36,-228.12 378.36,-224.08 378.36,-224.08 378.36,-216.02 378.36,-216.02 378.36,-211.98 382.39,-207.95 386.42,-207.95 386.42,-207.95 512.93,-207.95 512.93,-207.95 516.97,-207.95 521,-211.98 521,-216.02 521,-216.02 521,-224.08 521,-224.08 521,-228.12 516.97,-232.15 512.93,-232.15"/>
<text text-anchor="middle" x="449.68" y="-216.9" font-family="Arial" font-size="14.00" fill="#c6c5fe">users/user.service.js</text>
</g>
<!-- _helpers/jwt.js&#45;&gt;users/user.service.js -->
<g id="edge9" class="edge">
<title>_helpers/jwt.js&#45;&gt;users/user.service.js</title>
<path fill="none" stroke="#757575" d="M250.51,-251.81C284.31,-246.39 329.24,-239.19 367.77,-233.02"/>
<polygon fill="#757575" stroke="#757575" points="368.62,-236.43 377.94,-231.39 367.51,-229.51 368.62,-236.43"/>
</g>
<!-- users/user.service.js&#45;&gt;_helpers/db.js -->
<g id="edge22" class="edge">
<title>users/user.service.js&#45;&gt;_helpers/db.js</title>
<path fill="none" stroke="#757575" d="M521.17,-215.59C538.3,-212.43 556.05,-207.3 571.28,-199.05 603.01,-181.85 629.55,-148.64 644.57,-126.92"/>
<polygon fill="#757575" stroke="#757575" points="647.63,-128.65 650.29,-118.39 641.81,-124.75 647.63,-128.65"/>
</g>
<!-- users/user.service.js&#45;&gt;config.json -->
<g id="edge23" class="edge">
<title>users/user.service.js&#45;&gt;config.json</title>
<path fill="none" stroke="#757575" d="M521.39,-220.39C603.92,-220.79 738.37,-221.45 811.22,-221.8"/>
<polygon fill="#757575" stroke="#757575" points="811.49,-225.3 821.5,-221.85 811.52,-218.3 811.49,-225.3"/>
</g>
<!-- classes/class.service.js -->
<g id="node12" class="node">
<title>classes/class.service.js</title>
<path fill="none" stroke="#c6c5fe" d="M521.82,-190.15C521.82,-190.15 377.54,-190.15 377.54,-190.15 373.51,-190.15 369.47,-186.12 369.47,-182.08 369.47,-182.08 369.47,-174.02 369.47,-174.02 369.47,-169.98 373.51,-165.95 377.54,-165.95 377.54,-165.95 521.82,-165.95 521.82,-165.95 525.85,-165.95 529.88,-169.98 529.88,-174.02 529.88,-174.02 529.88,-182.08 529.88,-182.08 529.88,-186.12 525.85,-190.15 521.82,-190.15"/>
<text text-anchor="middle" x="449.68" y="-174.9" font-family="Arial" font-size="14.00" fill="#c6c5fe">classes/class.service.js</text>
</g>
<!-- classes/class.service.js&#45;&gt;_helpers/db.js -->
<g id="edge10" class="edge">
<title>classes/class.service.js&#45;&gt;_helpers/db.js</title>
<path fill="none" stroke="#757575" d="M529.93,-168.45C543.94,-165.57 558.22,-161.85 571.28,-157.05 593.39,-148.92 616.25,-135.18 632.93,-124.01"/>
<polygon fill="#757575" stroke="#757575" points="635.25,-126.67 641.52,-118.12 631.29,-120.89 635.25,-126.67"/>
</g>
<!-- classes/class.service.js&#45;&gt;config.json -->
<g id="edge11" class="edge">
<title>classes/class.service.js&#45;&gt;config.json</title>
<path fill="none" stroke="#757575" d="M529.98,-186.53C613.09,-195.42 741.13,-209.12 811.45,-216.64"/>
<polygon fill="#757575" stroke="#757575" points="811.08,-220.12 821.39,-217.71 811.82,-213.16 811.08,-220.12"/>
</g>
<!-- classes/classes.controller.js -->
<g id="node13" class="node">
<title>classes/classes.controller.js</title>
<path fill="none" stroke="#c6c5fe" d="M283.98,-188.15C283.98,-188.15 112.21,-188.15 112.21,-188.15 108.18,-188.15 104.15,-184.12 104.15,-180.08 104.15,-180.08 104.15,-172.02 104.15,-172.02 104.15,-167.98 108.18,-163.95 112.21,-163.95 112.21,-163.95 283.98,-163.95 283.98,-163.95 288.02,-163.95 292.05,-167.98 292.05,-172.02 292.05,-172.02 292.05,-180.08 292.05,-180.08 292.05,-184.12 288.02,-188.15 283.98,-188.15"/>
<text text-anchor="middle" x="198.1" y="-172.9" font-family="Arial" font-size="14.00" fill="#c6c5fe">classes/classes.controller.js</text>
</g>
<!-- classes/classes.controller.js&#45;&gt;classes/class.service.js -->
<g id="edge12" class="edge">
<title>classes/classes.controller.js&#45;&gt;classes/class.service.js</title>
<path fill="none" stroke="#757575" d="M292.39,-176.8C314.26,-176.97 337.52,-177.16 359.22,-177.33"/>
<polygon fill="#757575" stroke="#757575" points="359.37,-180.83 369.4,-177.41 359.43,-173.83 359.37,-180.83"/>
</g>
<!-- db&#45;initializer/db&#45;initializer.controller.js -->
<g id="node14" class="node">
<title>db&#45;initializer/db&#45;initializer.controller.js</title>
<path fill="none" stroke="#c6c5fe" d="M563.32,-148.15C563.32,-148.15 336.04,-148.15 336.04,-148.15 332.01,-148.15 327.97,-144.12 327.97,-140.08 327.97,-140.08 327.97,-132.02 327.97,-132.02 327.97,-127.98 332.01,-123.95 336.04,-123.95 336.04,-123.95 563.32,-123.95 563.32,-123.95 567.35,-123.95 571.38,-127.98 571.38,-132.02 571.38,-132.02 571.38,-140.08 571.38,-140.08 571.38,-144.12 567.35,-148.15 563.32,-148.15"/>
<text text-anchor="middle" x="449.68" y="-132.9" font-family="Arial" font-size="14.00" fill="#c6c5fe">db&#45;initializer/db&#45;initializer.controller.js</text>
</g>
<!-- db&#45;initializer/db&#45;initializer.controller.js&#45;&gt;_helpers/db.js -->
<g id="edge13" class="edge">
<title>db&#45;initializer/db&#45;initializer.controller.js&#45;&gt;_helpers/db.js</title>
<path fill="none" stroke="#757575" d="M534.05,-123.98C555.12,-120.93 577.34,-117.71 597.06,-114.85"/>
<polygon fill="#757575" stroke="#757575" points="597.73,-118.29 607.12,-113.4 596.73,-111.37 597.73,-118.29"/>
</g>
<!-- db&#45;initializer/db&#45;initializer.controller.js&#45;&gt;config.json -->
<g id="edge14" class="edge">
<title>db&#45;initializer/db&#45;initializer.controller.js&#45;&gt;config.json</title>
<path fill="none" stroke="#757575" d="M524.16,-148.11C539.75,-150.88 556.08,-153.93 571.28,-157.05 633.55,-169.84 649.09,-173.42 710.45,-190.05 726.59,-194.43 730.19,-197.1 746.45,-201.05 767.55,-206.17 791.09,-210.67 811.39,-214.17"/>
<polygon fill="#757575" stroke="#757575" points="810.93,-217.64 821.38,-215.86 812.1,-210.74 810.93,-217.64"/>
</g>
<!-- server.js -->
<g id="node15" class="node">
<title>server.js</title>
<path fill="none" stroke="#c6c5fe" d="M60.12,-230.15C60.12,-230.15 8,-230.15 8,-230.15 3.97,-230.15 -0.06,-226.12 -0.06,-222.08 -0.06,-222.08 -0.06,-214.02 -0.06,-214.02 -0.06,-209.98 3.97,-205.95 8,-205.95 8,-205.95 60.12,-205.95 60.12,-205.95 64.15,-205.95 68.19,-209.98 68.19,-214.02 68.19,-214.02 68.19,-222.08 68.19,-222.08 68.19,-226.12 64.15,-230.15 60.12,-230.15"/>
<text text-anchor="middle" x="34.06" y="-214.9" font-family="Arial" font-size="14.00" fill="#c6c5fe">server.js</text>
</g>
<!-- server.js&#45;&gt;config.json -->
<g id="edge19" class="edge">
<title>server.js&#45;&gt;config.json</title>
<path fill="none" stroke="#757575" d="M38.82,-230.37C46.63,-253.53 67.06,-303.06 104.12,-323.05 356.19,-458.96 721.64,-294.07 830.36,-238.84"/>
<polygon fill="#757575" stroke="#757575" points="832.19,-241.83 839.49,-234.15 829,-235.61 832.19,-241.83"/>
</g>
<!-- server.js&#45;&gt;_helpers/error&#45;handler.js -->
<g id="edge15" class="edge">
<title>server.js&#45;&gt;_helpers/error&#45;handler.js</title>
<path fill="none" stroke="#757575" d="M44.93,-230.28C57.23,-244.69 79.66,-268.29 104.12,-281.05 107.92,-283.03 111.9,-284.82 115.98,-286.45"/>
<polygon fill="#757575" stroke="#757575" points="115.08,-289.85 125.68,-289.95 117.46,-283.26 115.08,-289.85"/>
</g>
<!-- server.js&#45;&gt;_helpers/initializeDb.js -->
<g id="edge16" class="edge">
<title>server.js&#45;&gt;_helpers/initializeDb.js</title>
<path fill="none" stroke="#757575" d="M39.39,-205.84C47.9,-183.85 69.11,-138 104.12,-118.05 184.86,-72.04 294.1,-72.94 367.76,-80.81"/>
<polygon fill="#757575" stroke="#757575" points="367.57,-84.32 377.91,-81.97 368.36,-77.36 367.57,-84.32"/>
</g>
<!-- server.js&#45;&gt;_helpers/jwt.js -->
<g id="edge17" class="edge">
<title>server.js&#45;&gt;_helpers/jwt.js</title>
<path fill="none" stroke="#757575" d="M68.29,-228.69C79.61,-232.17 92.37,-235.94 104.12,-239.05 114.31,-241.74 125.18,-244.4 135.76,-246.86"/>
<polygon fill="#757575" stroke="#757575" points="135.25,-250.34 145.78,-249.16 136.82,-243.52 135.25,-250.34"/>
</g>
<!-- server.js&#45;&gt;classes/classes.controller.js -->
<g id="edge18" class="edge">
<title>server.js&#45;&gt;classes/classes.controller.js</title>
<path fill="none" stroke="#757575" d="M68.29,-207.41C79.61,-203.93 92.37,-200.16 104.12,-197.05 112.61,-194.8 121.57,-192.59 130.44,-190.49"/>
<polygon fill="#757575" stroke="#757575" points="131.45,-193.84 140.4,-188.16 129.86,-187.03 131.45,-193.84"/>
</g>
<!-- server.js&#45;&gt;db&#45;initializer/db&#45;initializer.controller.js -->
<g id="edge20" class="edge">
<title>server.js&#45;&gt;db&#45;initializer/db&#45;initializer.controller.js</title>
<path fill="none" stroke="#757575" d="M43.97,-205.9C55.8,-190.86 78.23,-165.91 104.12,-155.05 176.39,-124.72 264.77,-120.43 333.93,-123.48"/>
<polygon fill="#757575" stroke="#757575" points="333.82,-126.98 343.99,-123.98 334.17,-119.99 333.82,-126.98"/>
</g>
<!-- users/users.controller.js -->
<g id="node16" class="node">
<title>users/users.controller.js</title>
<path fill="none" stroke="#c6c5fe" d="M271.59,-230.15C271.59,-230.15 124.61,-230.15 124.61,-230.15 120.58,-230.15 116.54,-226.12 116.54,-222.08 116.54,-222.08 116.54,-214.02 116.54,-214.02 116.54,-209.98 120.58,-205.95 124.61,-205.95 124.61,-205.95 271.59,-205.95 271.59,-205.95 275.62,-205.95 279.65,-209.98 279.65,-214.02 279.65,-214.02 279.65,-222.08 279.65,-222.08 279.65,-226.12 275.62,-230.15 271.59,-230.15"/>
<text text-anchor="middle" x="198.1" y="-214.9" font-family="Arial" font-size="14.00" fill="#c6c5fe">users/users.controller.js</text>
</g>
<!-- server.js&#45;&gt;users/users.controller.js -->
<g id="edge21" class="edge">
<title>server.js&#45;&gt;users/users.controller.js</title>
<path fill="none" stroke="#757575" d="M68.24,-218.05C79.46,-218.05 92.58,-218.05 106.08,-218.05"/>
<polygon fill="#757575" stroke="#757575" points="106.44,-221.55 116.44,-218.05 106.44,-214.55 106.44,-221.55"/>
</g>
<!-- users/users.controller.js&#45;&gt;users/user.service.js -->
<g id="edge24" class="edge">
<title>users/users.controller.js&#45;&gt;users/user.service.js</title>
<path fill="none" stroke="#757575" d="M279.79,-218.7C308.07,-218.92 339.83,-219.18 368.1,-219.4"/>
<polygon fill="#757575" stroke="#757575" points="368.32,-222.91 378.35,-219.49 368.38,-215.91 368.32,-222.91"/>
</g>
</g>
</svg>
